<svg id="Слой_1" data-name="Слой 1" xmlns="http://www.w3.org/2000/svg" viewBox="0 0 45 45"><defs><style>.cls-1,.cls-2{fill:none;stroke-linejoin:round;stroke-width:1.5px;}.cls-1{stroke:#006cff;}.cls-2{stroke:#6cafff;}</style></defs><line class="cls-1" x1="0.99" y1="26.41" x2="44.01" y2="26.41"/><path class="cls-2" d="M22.89,32.67H8.81s-.49,7.82,5.87,7.82S22.89,32.67,22.89,32.67Z"/><path class="cls-2" d="M22.89,32.67H37s.49,7.82-5.86,7.82S22.89,32.67,22.89,32.67Z"/><line class="cls-2" x1="8.81" y1="32.67" x2="4.9" y2="32.67"/><line class="cls-2" x1="36.19" y1="32.67" x2="40.1" y2="32.67"/><path class="cls-1" d="M27.44,9.83l-3,13.45H21.33l-3-13.45A17.21,17.21,0,0,0,5.68,26.41H40.1A17.2,17.2,0,0,0,27.44,9.83Z"/><path class="cls-1" d="M18.2,9.2a4.69,4.69,0,1,1,9.38,0L24.46,23.28H21.33Z"/></svg>