<svg id="Слой_1" data-name="Слой 1" xmlns="http://www.w3.org/2000/svg" viewBox="0 0 45 45"><defs><style>.cls-1,.cls-2{fill:none;stroke-linejoin:round;stroke-width:1.5px;}.cls-1{stroke:#6cafff;}.cls-2{stroke:#006cff;}</style></defs><polygon class="cls-1" points="15.33 40.13 1 44 1 19.86 15.33 16 15.33 40.13"/><polyline class="cls-1" points="15.33 16 15.33 40.13 29.67 44 29.67 19.86"/><polygon class="cls-1" points="44 40.13 29.67 44 29.67 19.86 44 16 44 40.13"/><path class="cls-2" d="M22.9,31h0a.86.86,0,0,1-.72-.45c-.33-.61-8.16-15-8.16-20A9.46,9.46,0,0,1,23.33,1a9.46,9.46,0,0,1,9.32,9.57c0,5-8.66,19.4-9,20A.84.84,0,0,1,22.9,31Z"/><circle class="cls-2" cx="23.11" cy="10.1" r="3.75"/></svg>