<?xml version="1.0" encoding="UTF-8"?>
<svg width="66px" height="32px" viewBox="0 0 66 32" version="1.1" xmlns="http://www.w3.org/2000/svg" xmlns:xlink="http://www.w3.org/1999/xlink">
    <!-- Generator: Sketch 52.2 (67145) - http://www.bohemiancoding.com/sketch -->
    <title>logo_green</title>
    <desc>Created with Sketch.</desc>
    <g id="Symbols" stroke="none" stroke-width="1" fill="none" fill-rule="evenodd">
        <g id="footer" transform="translate(-1223.000000, -344.000000)" fill="#6FBE92">
            <g id="logo_green" transform="translate(1223.000000, 344.000000)">
                <path d="M10.9944298,5.278972 L10.8941663,5.278972 L6.8710921,5.278972 C6.78217512,5.30040948 6.71097997,5.36572667 6.68309798,5.45144513 C6.60790033,5.79639137 6.55776857,6.15365712 6.5076368,6.49860336 C6.45750503,6.84354961 6.41990621,6.9790642 6.38230739,7.22545438 C6.27131302,7.13128589 6.17798969,7.01870318 6.10658268,6.89282764 C5.57858012,5.89478407 4.59458031,5.20717088 3.46213205,5.04490134 C2.17656825,4.81208756 0.902352057,5.50277574 0.416627303,6.6957155 C0.117552498,7.48288947 -0.02291773,8.31972618 0.00304023807,9.15961724 C0.00304023807,12.1409383 0.00304023807,20.1116605 0.00304023807,23.031384 C0.00484122759,23.5871673 0.0383148453,24.1424151 0.103303769,24.6945177 C0.160563873,25.3593464 0.42291249,25.9911546 0.85528025,26.5054855 C1.55072764,27.2072202 2.55893822,27.5174994 3.5373297,27.3308926 C4.48495828,27.2070968 5.31702795,26.6496456 5.7807262,25.8279125 C5.91858856,25.6431199 6.04391797,25.4460077 6.16924738,25.2488956 L6.16924738,26.6163611 C6.26951091,27.6019218 5.80579208,28.1562996 4.82822266,28.1562996 C3.85065323,28.1562996 2.50962851,28.1562996 1.36913085,28.1562996 L1.04327437,28.1562996 L1.04327437,31.9999864 L1.38166379,31.9999864 C2.92321557,31.9999864 4.4773003,31.9999864 6.03138503,31.9999864 C6.45070951,32.0007195 6.86954793,31.9719001 7.28467916,31.9137498 C8.68611867,31.7817432 9.91627349,30.9413687 10.530711,29.6962382 C10.8644423,28.9564968 11.0229986,28.1519421 10.9944298,27.3432121 C10.9944298,21.7747941 10.9944298,11.0937801 10.9944298,5.52536218 C11.0069627,5.45144513 10.9944298,5.36520857 10.9944298,5.278972 Z M6.26951091,22.6617988 C6.27004146,22.869367 6.24478875,23.0762225 6.19431327,23.2777742 C6.12185936,23.5688847 5.84676916,23.7664887 5.54260032,23.7459155 C5.38884027,23.7630937 5.23465418,23.7174127 5.11616137,23.6195738 C4.99766856,23.5217349 4.92527999,23.3803343 4.91595325,23.2284962 C4.89747876,23.0565011 4.89747876,22.8830719 4.91595325,22.7110768 L4.91595325,9.67703661 C4.90304193,9.52124755 4.90304193,9.36468434 4.91595325,9.20889528 C4.92245537,9.06181418 4.98820673,8.9233154 5.09870818,8.82393998 C5.20920963,8.72456457 5.35538538,8.67247449 5.50500149,8.6791564 C5.82723402,8.64914627 6.11784545,8.87013039 6.16924738,9.18425626 C6.21777889,9.34519339 6.25133795,9.51013117 6.26951091,9.67703661 L6.26951091,22.6617988 Z" id="Shape" fill-rule="nonzero"></path>
                <path d="M65.9948034,9.76618565 C65.996664,9.2696811 65.9546969,8.77390675 65.8693454,8.28410271 C65.7174279,6.89893091 64.6928025,5.74271085 63.2849123,5.36774594 C61.6003924,4.87741802 59.8005658,4.87741802 58.116046,5.36774594 C56.5942269,5.71790597 55.4993174,6.98523835 55.4312465,8.47533922 C55.3434259,9.61080599 55.4312465,10.758225 55.4312465,11.9056441 L59.8975484,11.9056441 L59.8975484,11.6665985 C59.8975484,10.841891 59.8975484,10.0171836 59.8975484,9.19247612 C59.8749912,8.96984405 59.9797381,8.75283493 60.1718278,8.62423867 C60.3639174,8.49564241 60.6137209,8.47529439 60.825937,8.57095747 C61.1646734,8.69048029 61.2148566,8.97733505 61.2148566,9.2761421 L61.2148566,11.9534532 C61.2255416,12.0188146 61.2073199,12.0854722 61.164527,12.1375651 C61.1217342,12.1896581 61.0581965,12.2225287 60.9890323,12.2283557 L58.8813393,12.8020652 C58.0852085,13.0031149 57.3302786,13.3303986 56.6481883,13.7702001 C55.556643,14.5340812 54.9395344,15.7682533 55.0046895,17.0570776 C55.0046895,18.2523057 55.0046895,19.4475339 55.0046895,20.6427621 C55.0208125,21.0932306 55.1010003,21.5395338 55.2430596,21.9694654 C55.5235189,23.0367947 56.4774765,23.8212569 57.6267601,23.9296396 C58.8622395,24.1915807 60.1403532,23.7083113 60.8510286,22.7105069 C61.0141239,22.4714612 61.1521276,22.208511 61.3277687,21.8977517 C61.4281351,22.4953658 61.5410472,23.0929799 61.6288677,23.5949757 C61.6288677,23.7742599 61.7292341,23.8220691 61.9174209,23.8220691 C63.1720002,23.8220691 64.4265794,23.8220691 65.6811586,23.8220691 C65.9320744,23.8220691 65.9822576,23.7503554 65.9822576,23.523262 C65.9948034,18.9096812 66.0073492,14.3439096 65.9948034,9.76618565 Z M61.189765,19.3280111 C61.1887924,19.5535741 61.1419265,19.7768182 61.0517613,19.9853866 C60.9671989,20.2259766 60.740113,20.3952885 60.4746549,20.4156687 C60.3304251,20.4472769 60.1788933,20.4181691 60.058789,20.335785 C59.9386847,20.2534008 59.8616468,20.1257238 59.8473653,19.9853866 C59.8414894,19.9497482 59.8414894,19.9134544 59.8473653,19.8778161 C59.8473653,18.7901584 59.8473653,17.6905485 59.8473653,16.6028908 C59.8425774,16.1429089 60.178198,15.7432299 60.650296,15.6467083 L61.189765,15.4913286 C61.189765,15.5988992 61.189765,15.6706129 61.189765,15.7423266 C61.2023108,16.9734116 61.2023108,18.1686398 61.189765,19.3638679 L61.189765,19.3280111 Z" id="Shape" fill-rule="nonzero"></path>
                <path d="M22.499979,21.2448073 C22.8338922,20.4200821 23.0034767,19.5426909 22.999946,18.6580942 C22.999946,15.9156992 22.999946,13.1733042 22.999946,10.4309093 C22.9934564,9.77257504 22.9053445,9.11731148 22.7374633,8.4788989 C22.4198074,6.90480113 21.1752908,5.65163555 19.5501735,5.26945851 C18.2473628,4.92279875 16.8723216,4.91040909 15.5629365,5.23353194 C14.1328022,5.54070342 12.9644751,6.52467476 12.463141,7.84419614 C12.1549672,8.64553001 11.9983609,9.4930834 12.0006715,10.3470806 L12.0006715,14.4786363 C12.0006715,15.7600174 12.0006715,17.053374 12.0006715,18.3467305 C11.9932326,19.0087088 12.0476124,19.6699977 12.1631608,20.322692 C12.4293037,21.9906182 13.7161207,23.3416185 15.4254456,23.7476918 C16.651252,24.0624702 17.9391243,24.0830355 19.1751983,23.8075694 C20.6726456,23.5642136 21.9311914,22.5941185 22.499979,21.2448073 Z M18.162765,19.3886011 C18.1601823,19.6232447 18.1265837,19.8566295 18.0627716,20.0831815 C18.0001506,20.3043221 17.7894452,20.4569616 17.5503054,20.4544227 C17.2753236,20.4544227 17.0128409,20.4544227 16.9128475,20.1550346 C16.8199718,19.9172897 16.769275,19.6663299 16.7628574,19.4125522 C16.7628574,18.7299473 16.7628574,18.0353669 16.7628574,17.3407865 C16.7628574,14.79 16.7628574,12.2272379 16.7628574,9.67645128 C16.7487915,9.44383034 16.7655913,9.21043948 16.8128541,8.9818709 C16.8806637,8.70419147 17.1545163,8.5189824 17.450312,8.55075204 C17.7350788,8.53433874 17.9875714,8.72478204 18.0377733,8.99384642 C18.097572,9.20457621 18.1270095,9.42215165 18.1252675,9.64052471 L18.1252675,19.3886011 L18.162765,19.3886011 Z" id="Shape" fill-rule="nonzero"></path>
                <path d="M34.9307792,6.85600262 C34.8372198,6.13980396 34.3790419,5.52396284 33.7211837,5.23017413 C32.6046455,4.7671748 31.320511,5.01524801 30.4552758,5.86109265 C30.1454453,6.20050893 29.8546925,6.55696318 29.584367,6.92880091 L29.3666398,7.24426016 C29.2819681,6.54054336 29.1972965,5.89749179 29.1126248,5.24230718 L25,5.24230718 L25,24 L29.6206549,24 L29.6206549,9.81646642 C29.6024203,9.67550504 29.6024203,9.53277112 29.6206549,9.39180973 C29.6725073,9.16966176 29.7581847,8.95685741 29.8746699,8.76089121 C30.0041021,8.58967319 30.2285042,8.52116747 30.4310839,8.59102854 C30.6367151,8.59102854 30.6971949,8.82155646 30.7092909,9.00355218 C30.7211594,9.17320627 30.7211594,9.34348613 30.7092909,9.51314021 L30.7092909,16.0528533 L34.991259,16.0528533 C34.991259,15.967922 34.991259,15.9072567 34.991259,15.8344584 C34.991259,13.2379861 34.991259,10.6415137 34.991259,8.04504136 C35.0135153,7.64766603 34.9932396,7.24904241 34.9307792,6.85600262 Z" id="Path"></path>
                <path d="M42,3.11631016 C40.5059267,2.8813331 39.3947036,1.5635864 39.372093,0 C38.9469907,0.548146528 38.6308483,1.17787432 38.4418605,1.85294118 C38.2558857,1.60953474 38.1535987,1.30894226 38.1511628,0.998663102 C37.6414417,1.31634571 37.4457456,1.98095581 37.6976744,2.53877005 L37,2.40641711 L37,9 L42,9 L42,3.11631016 Z" id="Path"></path>
                <path d="M53.9999406,6.89765721 C54.0091401,5.56882083 52.9482654,4.44705343 51.5394435,4.29593095 L49,4 L49,24 L53.9999406,24 L53.9999406,6.89765721 Z" id="Path"></path>
                <path d="M37,24 L40.3410673,24 C41.2527591,24.0000235 41.9936245,23.2246313 42,22.2637555 L42,20.4908297 C41.9303944,20.5886463 41.6983759,20.8331878 40.9327146,20.7475983 C41.505731,20.2208422 41.8837393,19.49764 42,18.7056769 L42,10 L37.3596288,10 L37,24 Z" id="Path"></path>
                <path d="M48,22.2323651 L48,20.4273859 C47.8953488,20.5394191 47.627907,20.7136929 46.9767442,20.6390041 C47.5058537,20.1537125 47.8664103,19.4913887 48,18.7593361 L48,3.62240664 L43,3 L43,24 L46.3372093,24 C47.2510214,24.0000239 47.9936097,23.2106131 48,22.2323651 Z" id="Path"></path>
                <path d="M16.0836665,31.1120423 C15.9515966,31.2252535 15.7844618,31.2827185 15.6145911,31.2733218 C15.4045957,31.282298 15.2013698,31.193928 15.0582458,31.0314025 C14.902358,30.8356817 14.8241811,30.5838819 14.8400711,30.3286847 L14.8400711,29.6950867 C14.8241811,29.4398895 14.902358,29.1880897 15.0582458,28.9923689 C15.2013698,28.8298434 15.4045957,28.7414734 15.6145911,28.7504496 C15.7801327,28.7336581 15.9451451,28.7875952 16.0727578,28.9002091 C16.1784555,29.0043242 16.2572956,29.1351576 16.3018412,29.280368 L16.9890913,28.9117291 C16.8821784,28.6289406 16.695587,28.3876593 16.4545634,28.2205313 C16.2004041,28.0635953 15.9087071,27.9875851 15.6145911,28.0016519 C15.3873009,28.0004709 15.1617415,28.0434246 14.9491585,28.1283715 C14.7528675,28.2171688 14.5777356,28.3509586 14.4364481,28.5200503 C14.2871254,28.7094728 14.1757878,28.928948 14.1091861,29.1651683 C13.9636046,29.730908 13.9636046,30.3274233 14.1091861,30.893163 C14.1758063,31.118994 14.2873888,31.3271684 14.4364481,31.5037211 C14.5787725,31.6659421 14.7540688,31.7919802 14.9491585,31.8723599 C15.1617415,31.9573068 15.3873009,32.0002605 15.6145911,31.9990795 C15.9147185,32.0098678 16.2110427,31.925618 16.4654722,31.7571603 C16.6931919,31.5797143 16.8766376,31.3464542 17,31.0774824 L16.3454761,30.6742836 C16.295558,30.8416746 16.2053459,30.9925137 16.0836665,31.1120423 Z" id="Path"></path>
                <path d="M24.4575902,28.5071311 C24.285241,28.3376398 24.0663164,28.2069625 23.8202658,28.1267089 C23.2913941,27.9577637 22.7083663,27.9577637 22.1794946,28.1267089 C21.933444,28.2069625 21.7145194,28.3376398 21.5421702,28.5071311 C21.3687924,28.693217 21.2356461,28.9039896 21.1489275,29.1296402 C20.9503575,29.6976018 20.9503575,30.3023982 21.1489275,30.8703598 C21.2325239,31.0971366 21.3659636,31.3083737 21.5421702,31.4928689 C21.7145194,31.6623602 21.933444,31.7930375 22.1794946,31.8732911 C22.7083663,32.0422363 23.2913941,32.0422363 23.8202658,31.8732911 C24.0663164,31.7930375 24.285241,31.6623602 24.4575902,31.4928689 C24.6428546,31.3118034 24.7814333,31.0997437 24.864393,30.8703598 C25.0452023,30.3003001 25.0452023,29.6996999 24.864393,29.1296402 C24.7786226,28.9012818 24.6403455,28.6896836 24.4575902,28.5071311 Z M23.9558668,30.2939626 C23.9748698,30.550894 23.8832965,30.8049305 23.698225,31.0086952 C23.5225286,31.1740274 23.2683546,31.2630027 23.0066602,31.250782 C22.7403297,31.2665882 22.4802636,31.1773011 22.3015354,31.0086952 C22.1246537,30.8013941 22.0340049,30.5499223 22.0438936,30.2939626 L22.0438936,29.6599256 C22.0340049,29.403966 22.1246537,29.1524941 22.3015354,28.945193 C22.5088281,28.7641233 22.8106976,28.6858293 23.1015809,28.73769 C23.3632752,28.7254693 23.6174492,28.8144446 23.7931456,28.9797769 C23.9782171,29.1835416 24.0697904,29.437578 24.0507874,29.6945095 L23.9558668,30.2939626 Z" id="Shape" fill-rule="nonzero"></path>
                <polygon id="Path" points="32 29.8746269 31.9875 29.8746269 30.9625 28 30 28 30 32 30.85 32 30.85 29.3373134 30.875 29.3373134 31.1875 29.9701493 31.9875 31.3791045 32.8125 29.958209 33.1125 29.3731343 33.1375 29.3731343 33.1375 32 34 32 34 28 33.025 28"></polygon>
                <path d="M40.6781554,28.3428514 C40.4528585,28.1131001 40.1449822,27.9892651 39.8275824,28.000731 L38,28.000731 L38,32 L38.8390787,32 L38.8390787,30.5253433 L39.8275824,30.5253433 C39.993249,30.5299722 40.1579317,30.4977771 40.3103401,30.4309653 C40.4504314,30.3739999 40.5761684,30.2852767 40.6781554,30.1714257 C40.7849592,30.0631541 40.8639435,29.9293943 40.90804,29.7821163 C40.9693385,29.6163108 41.0005048,29.440377 40.9999938,29.2630371 C40.9994995,29.0857903 40.9683656,28.9100396 40.90804,28.743958 C40.8612534,28.5944533 40.7827397,28.4574611 40.6781554,28.3428514 Z M40.1264324,29.3810097 C40.1352256,29.4900619 40.0974836,29.5976646 40.0229843,29.675941 C39.9403687,29.7494448 39.8333451,29.7874681 39.7241344,29.7821163 L38.8390787,29.7821163 L38.8390787,28.743958 L39.7241344,28.743958 C39.8333451,28.7386062 39.9403687,28.7766295 40.0229843,28.8501333 C40.0969913,28.9238805 40.1349453,29.0277593 40.1264324,29.1332674 L40.1264324,29.3810097 Z" id="Shape" fill-rule="nonzero"></path>
                <path d="M46.483871,28 L45,32 L45.9548387,32 L46.2645161,31.0678466 L47.7096774,31.0678466 L48.0193548,32 L49,32 L47.5935484,28.0471976 L46.483871,28 Z M46.5483871,30.2772861 L47.0258065,28.7787611 L47.5806452,30.2772861 L46.5483871,30.2772861 Z" id="Shape" fill-rule="nonzero"></path>
                <polygon id="Path" points="56.2554745 30.6985075 56.2335766 30.6985075 55.8832117 29.8865672 54.8759124 28 54 28 54 32 54.7554745 32 54.7554745 29.3014925 54.7773723 29.3014925 55.1277372 30.1134328 56.1350365 32 57 32 57 28 56.2554745 28"></polygon>
                <polygon id="Path" points="63.0394737 29.5880597 63.0263158 29.5880597 62.0789474 28 61 28 62.5131579 30.4358209 62.5131579 32 63.4868421 32 63.4868421 30.4358209 65 28 63.9473684 28"></polygon>
            </g>
        </g>
    </g>
</svg>