<?xml version="1.0" encoding="UTF-8"?>
<svg width="1309px" height="715px" viewBox="0 0 1309 715" version="1.1" xmlns="http://www.w3.org/2000/svg" xmlns:xlink="http://www.w3.org/1999/xlink">
    <!-- Generator: Sketch 52.2 (67145) - http://www.bohemiancoding.com/sketch -->
    <title>vector</title>
    <desc>Created with Sketch.</desc>
    <g id="Vnutr" stroke="none" stroke-width="1" fill="none" fill-rule="evenodd">
        <g id="desktop-/-project" transform="translate(-96.000000, -3088.000000)">
            <g id="005-copy-2" transform="translate(0.000000, 2893.000000)">
                <g id="vector">
                    <g id="Group-9" transform="translate(327.000000, 195.000000)">
                        <rect id="Rectangle" fill="#FFFFFF" x="0" y="0" width="70" height="27" rx="13.5"></rect>
                        <path d="M25.6753332,16.416 L25.6753332,19.74 L23.8753332,19.74 L23.8753332,18 L17.9473332,18 L17.9473332,19.74 L16.1473332,19.74 L16.1593332,16.416 L16.4953332,16.416 C16.9993358,16.3999999 17.3553322,16.0320036 17.5633332,15.312 C17.7713343,14.5919964 17.899333,13.5640067 17.9473332,12.228 L18.0433332,9.6 L24.4993332,9.6 L24.4993332,16.416 L25.6753332,16.416 Z M19.6633332,12.408 C19.623333,13.408005 19.5393339,14.2459966 19.4113332,14.922 C19.2833326,15.5980034 19.0873346,16.0959984 18.8233332,16.416 L22.5793332,16.416 L22.5793332,11.184 L19.6993332,11.184 L19.6633332,12.408 Z M30.6579999,18.144 C29.7859956,18.144 29.0000034,17.9560019 28.2999999,17.58 C27.5999964,17.2039981 27.0520019,16.6860033 26.6559999,16.026 C26.259998,15.3659967 26.0619999,14.6240041 26.0619999,13.8 C26.0619999,12.9759959 26.259998,12.2340033 26.6559999,11.574 C27.0520019,10.9139967 27.5999964,10.3960019 28.2999999,10.02 C29.0000034,9.64399812 29.7859956,9.456 30.6579999,9.456 C31.5300043,9.456 32.3139965,9.64399812 33.0099999,10.02 C33.7060034,10.3960019 34.2539979,10.9139967 34.6539999,11.574 C35.0540019,12.2340033 35.2539999,12.9759959 35.2539999,13.8 C35.2539999,14.6240041 35.0540019,15.3659967 34.6539999,16.026 C34.2539979,16.6860033 33.7060034,17.2039981 33.0099999,17.58 C32.3139965,17.9560019 31.5300043,18.144 30.6579999,18.144 Z M30.6579999,16.488 C31.1540024,16.488 31.6019979,16.3740011 32.0019999,16.146 C32.4020019,15.9179989 32.7159988,15.600002 32.9439999,15.192 C33.1720011,14.783998 33.2859999,14.3200026 33.2859999,13.8 C33.2859999,13.2799974 33.1720011,12.816002 32.9439999,12.408 C32.7159988,11.999998 32.4020019,11.6820011 32.0019999,11.454 C31.6019979,11.2259989 31.1540024,11.112 30.6579999,11.112 C30.1619975,11.112 29.7140019,11.2259989 29.3139999,11.454 C28.9139979,11.6820011 28.6000011,11.999998 28.3719999,12.408 C28.1439988,12.816002 28.0299999,13.2799974 28.0299999,13.8 C28.0299999,14.3200026 28.1439988,14.783998 28.3719999,15.192 C28.6000011,15.600002 28.9139979,15.9179989 29.3139999,16.146 C29.7140019,16.3740011 30.1619975,16.488 30.6579999,16.488 Z M44.0646666,18 L44.0526666,12.972 L41.5806666,17.112 L40.7166666,17.112 L38.2446666,13.068 L38.2446666,18 L36.4206667,18 L36.4206667,9.6 L38.0286666,9.6 L41.1726666,14.82 L44.2686667,9.6 L45.8766666,9.6 L45.8886666,18 L44.0646666,18 Z M53.37,9.6 L53.37,18 L51.426,18 L51.426,11.16 L49.746,11.16 L49.746,9.6 L53.37,9.6 Z" id="Дом-1" fill="#333333"></path>
                    </g>
                    <g id="Group-9-Copy" transform="translate(615.000000, 245.000000)">
                        <rect id="Rectangle" fill="#FFFFFF" x="0" y="0" width="70" height="27" rx="13.5"></rect>
                        <path d="M24.4873332,16.416 L24.4873332,19.74 L22.6873332,19.74 L22.6873332,18 L16.7593332,18 L16.7593332,19.74 L14.9593332,19.74 L14.9713332,16.416 L15.3073332,16.416 C15.8113358,16.3999999 16.1673322,16.0320036 16.3753332,15.312 C16.5833343,14.5919964 16.711333,13.5640067 16.7593332,12.228 L16.8553332,9.6 L23.3113332,9.6 L23.3113332,16.416 L24.4873332,16.416 Z M18.4753332,12.408 C18.435333,13.408005 18.3513339,14.2459966 18.2233332,14.922 C18.0953326,15.5980034 17.8993346,16.0959984 17.6353332,16.416 L21.3913332,16.416 L21.3913332,11.184 L18.5113332,11.184 L18.4753332,12.408 Z M29.4699999,18.144 C28.5979956,18.144 27.8120034,17.9560019 27.1119999,17.58 C26.4119964,17.2039981 25.8640019,16.6860033 25.4679999,16.026 C25.071998,15.3659967 24.8739999,14.6240041 24.8739999,13.8 C24.8739999,12.9759959 25.071998,12.2340033 25.4679999,11.574 C25.8640019,10.9139967 26.4119964,10.3960019 27.1119999,10.02 C27.8120034,9.64399812 28.5979956,9.456 29.4699999,9.456 C30.3420043,9.456 31.1259965,9.64399812 31.8219999,10.02 C32.5180034,10.3960019 33.0659979,10.9139967 33.4659999,11.574 C33.8660019,12.2340033 34.0659999,12.9759959 34.0659999,13.8 C34.0659999,14.6240041 33.8660019,15.3659967 33.4659999,16.026 C33.0659979,16.6860033 32.5180034,17.2039981 31.8219999,17.58 C31.1259965,17.9560019 30.3420043,18.144 29.4699999,18.144 Z M29.4699999,16.488 C29.9660024,16.488 30.4139979,16.3740011 30.8139999,16.146 C31.2140019,15.9179989 31.5279988,15.600002 31.7559999,15.192 C31.9840011,14.783998 32.0979999,14.3200026 32.0979999,13.8 C32.0979999,13.2799974 31.9840011,12.816002 31.7559999,12.408 C31.5279988,11.999998 31.2140019,11.6820011 30.8139999,11.454 C30.4139979,11.2259989 29.9660024,11.112 29.4699999,11.112 C28.9739975,11.112 28.5260019,11.2259989 28.1259999,11.454 C27.7259979,11.6820011 27.4120011,11.999998 27.1839999,12.408 C26.9559988,12.816002 26.8419999,13.2799974 26.8419999,13.8 C26.8419999,14.3200026 26.9559988,14.783998 27.1839999,15.192 C27.4120011,15.600002 27.7259979,15.9179989 28.1259999,16.146 C28.5260019,16.3740011 28.9739975,16.488 29.4699999,16.488 Z M42.8766666,18 L42.8646666,12.972 L40.3926666,17.112 L39.5286666,17.112 L37.0566666,13.068 L37.0566666,18 L35.2326666,18 L35.2326666,9.6 L36.8406666,9.6 L39.9846666,14.82 L43.0806666,9.6 L44.6886666,9.6 L44.7006666,18 L42.8766666,18 Z M55.2180001,16.416 L55.2180001,18 L48.8700001,18 L48.8700001,16.74 L52.11,13.68 C52.4540018,13.3519984 52.6859994,13.0700012 52.806,12.834 C52.9260006,12.5979988 52.9860001,12.3640012 52.9860001,12.132 C52.9860001,11.7959983 52.8720012,11.5380009 52.6440001,11.358 C52.4159989,11.1779991 52.0820023,11.088 51.642,11.088 C51.2739982,11.088 50.9420015,11.1579993 50.646,11.298 C50.3499986,11.4380007 50.102001,11.6479986 49.902,11.928 L48.4860001,11.016 C48.8140017,10.5279976 49.2659972,10.1460014 49.842,9.87 C50.4180029,9.59399862 51.0779963,9.456 51.822,9.456 C52.4460032,9.456 52.9919977,9.55799898 53.46,9.762 C53.9280024,9.96600102 54.2919988,10.2539981 54.5520001,10.626 C54.8120013,10.9980019 54.942,11.4359975 54.942,11.94 C54.942,12.3960023 54.846001,12.823998 54.654,13.224 C54.4619991,13.624002 54.0900028,14.0799974 53.538,14.592 L51.606,16.416 L55.2180001,16.416 Z" id="Дом-2" fill="#333333"></path>
                    </g>
                    <g id="Group-9-Copy-8" transform="translate(978.000000, 326.000000)">
                        <rect id="Rectangle" fill="#FFFFFF" x="0" y="0" width="70" height="27" rx="13.5"></rect>
                        <path d="M24.4753332,16.416 L24.4753332,19.74 L22.6753332,19.74 L22.6753332,18 L16.7473332,18 L16.7473332,19.74 L14.9473332,19.74 L14.9593332,16.416 L15.2953332,16.416 C15.7993358,16.3999999 16.1553322,16.0320036 16.3633332,15.312 C16.5713343,14.5919964 16.699333,13.5640067 16.7473332,12.228 L16.8433332,9.6 L23.2993332,9.6 L23.2993332,16.416 L24.4753332,16.416 Z M18.4633332,12.408 C18.423333,13.408005 18.3393339,14.2459966 18.2113332,14.922 C18.0833326,15.5980034 17.8873346,16.0959984 17.6233332,16.416 L21.3793332,16.416 L21.3793332,11.184 L18.4993332,11.184 L18.4633332,12.408 Z M29.4579999,18.144 C28.5859956,18.144 27.8000034,17.9560019 27.0999999,17.58 C26.3999964,17.2039981 25.8520019,16.6860033 25.4559999,16.026 C25.059998,15.3659967 24.8619999,14.6240041 24.8619999,13.8 C24.8619999,12.9759959 25.059998,12.2340033 25.4559999,11.574 C25.8520019,10.9139967 26.3999964,10.3960019 27.0999999,10.02 C27.8000034,9.64399812 28.5859956,9.456 29.4579999,9.456 C30.3300043,9.456 31.1139965,9.64399812 31.8099999,10.02 C32.5060034,10.3960019 33.0539979,10.9139967 33.4539999,11.574 C33.8540019,12.2340033 34.0539999,12.9759959 34.0539999,13.8 C34.0539999,14.6240041 33.8540019,15.3659967 33.4539999,16.026 C33.0539979,16.6860033 32.5060034,17.2039981 31.8099999,17.58 C31.1139965,17.9560019 30.3300043,18.144 29.4579999,18.144 Z M29.4579999,16.488 C29.9540024,16.488 30.4019979,16.3740011 30.8019999,16.146 C31.2020019,15.9179989 31.5159988,15.600002 31.7439999,15.192 C31.9720011,14.783998 32.0859999,14.3200026 32.0859999,13.8 C32.0859999,13.2799974 31.9720011,12.816002 31.7439999,12.408 C31.5159988,11.999998 31.2020019,11.6820011 30.8019999,11.454 C30.4019979,11.2259989 29.9540024,11.112 29.4579999,11.112 C28.9619975,11.112 28.5140019,11.2259989 28.1139999,11.454 C27.7139979,11.6820011 27.4000011,11.999998 27.1719999,12.408 C26.9439988,12.816002 26.8299999,13.2799974 26.8299999,13.8 C26.8299999,14.3200026 26.9439988,14.783998 27.1719999,15.192 C27.4000011,15.600002 27.7139979,15.9179989 28.1139999,16.146 C28.5140019,16.3740011 28.9619975,16.488 29.4579999,16.488 Z M42.8646666,18 L42.8526666,12.972 L40.3806666,17.112 L39.5166666,17.112 L37.0446666,13.068 L37.0446666,18 L35.2206666,18 L35.2206666,9.6 L36.8286667,9.6 L39.9726666,14.82 L43.0686666,9.6 L44.6766667,9.6 L44.6886667,18 L42.8646666,18 Z M52.8540001,13.02 C53.5900037,13.1400006 54.1539981,13.4139979 54.5460001,13.842 C54.938002,14.2700021 55.134,14.7999968 55.134,15.432 C55.134,15.9200024 55.0060013,16.3699979 54.75,16.782 C54.4939988,17.1940021 54.1040027,17.5239988 53.5800001,17.772 C53.0559974,18.0200012 52.4140039,18.144 51.6540001,18.144 C51.0619971,18.144 50.4800029,18.0660008 49.908,17.91 C49.3359972,17.7539992 48.8500021,17.5320014 48.45,17.244 L49.2060001,15.756 C49.5260016,15.9960012 49.8959979,16.1819993 50.316,16.314 C50.7360022,16.4460007 51.1659978,16.512 51.6060001,16.512 C52.0940025,16.512 52.4779987,16.4180009 52.7580001,16.23 C53.0380015,16.0419991 53.1780001,15.7760017 53.1780001,15.432 C53.1780001,14.7439966 52.6540053,14.4 51.6060001,14.4 L50.7180001,14.4 L50.7180001,13.116 L52.4460001,11.16 L48.8700001,11.16 L48.8700001,9.6 L54.75,9.6 L54.75,10.86 L52.8540001,13.02 Z" id="Дом-3" fill="#333333"></path>
                    </g>
                    <g id="Group-9-Copy-9" transform="translate(96.000000, 468.000000)">
                        <rect id="Rectangle" fill="#FFFFFF" x="0" y="0" width="70" height="27" rx="13.5"></rect>
                        <path d="M24.4573332,16.416 L24.4573332,19.74 L22.6573332,19.74 L22.6573332,18 L16.7293332,18 L16.7293332,19.74 L14.9293332,19.74 L14.9413332,16.416 L15.2773332,16.416 C15.7813358,16.3999999 16.1373322,16.0320036 16.3453332,15.312 C16.5533343,14.5919964 16.681333,13.5640067 16.7293332,12.228 L16.8253332,9.6 L23.2813332,9.6 L23.2813332,16.416 L24.4573332,16.416 Z M18.4453332,12.408 C18.405333,13.408005 18.3213339,14.2459966 18.1933332,14.922 C18.0653326,15.5980034 17.8693346,16.0959984 17.6053332,16.416 L21.3613332,16.416 L21.3613332,11.184 L18.4813332,11.184 L18.4453332,12.408 Z M29.4399999,18.144 C28.5679956,18.144 27.7820034,17.9560019 27.0819999,17.58 C26.3819964,17.2039981 25.8340019,16.6860033 25.4379999,16.026 C25.041998,15.3659967 24.8439999,14.6240041 24.8439999,13.8 C24.8439999,12.9759959 25.041998,12.2340033 25.4379999,11.574 C25.8340019,10.9139967 26.3819964,10.3960019 27.0819999,10.02 C27.7820034,9.64399812 28.5679956,9.456 29.4399999,9.456 C30.3120043,9.456 31.0959965,9.64399812 31.7919999,10.02 C32.4880034,10.3960019 33.0359979,10.9139967 33.4359999,11.574 C33.8360019,12.2340033 34.0359999,12.9759959 34.0359999,13.8 C34.0359999,14.6240041 33.8360019,15.3659967 33.4359999,16.026 C33.0359979,16.6860033 32.4880034,17.2039981 31.7919999,17.58 C31.0959965,17.9560019 30.3120043,18.144 29.4399999,18.144 Z M29.4399999,16.488 C29.9360024,16.488 30.3839979,16.3740011 30.7839999,16.146 C31.1840019,15.9179989 31.4979988,15.600002 31.7259999,15.192 C31.9540011,14.783998 32.0679999,14.3200026 32.0679999,13.8 C32.0679999,13.2799974 31.9540011,12.816002 31.7259999,12.408 C31.4979988,11.999998 31.1840019,11.6820011 30.7839999,11.454 C30.3839979,11.2259989 29.9360024,11.112 29.4399999,11.112 C28.9439975,11.112 28.4960019,11.2259989 28.0959999,11.454 C27.6959979,11.6820011 27.3820011,11.999998 27.1539999,12.408 C26.9259988,12.816002 26.8119999,13.2799974 26.8119999,13.8 C26.8119999,14.3200026 26.9259988,14.783998 27.1539999,15.192 C27.3820011,15.600002 27.6959979,15.9179989 28.0959999,16.146 C28.4960019,16.3740011 28.9439975,16.488 29.4399999,16.488 Z M42.8466666,18 L42.8346666,12.972 L40.3626666,17.112 L39.4986666,17.112 L37.0266666,13.068 L37.0266666,18 L35.2026666,18 L35.2026666,9.6 L36.8106666,9.6 L39.9546666,14.82 L43.0506666,9.6 L44.6586666,9.6 L44.6706666,18 L42.8466666,18 Z M51.792,12.756 C52.976006,12.756 53.8499972,12.9919976 54.414,13.464 C54.9780029,13.9360024 55.2600001,14.567996 55.2600001,15.36 C55.2600001,15.8720026 55.1320013,16.3379979 54.8760001,16.758 C54.6199988,17.1780021 54.2300027,17.5139987 53.7060001,17.766 C53.1819974,18.0180013 52.5360039,18.144 51.768,18.144 C51.1759971,18.144 50.5940029,18.0660008 50.0220001,17.91 C49.4499972,17.7539992 48.964002,17.5320014 48.564,17.244 L49.332,15.756 C49.6520016,15.9960012 50.019998,16.1819993 50.436,16.314 C50.8520021,16.4460007 51.2799979,16.512 51.72,16.512 C52.2080025,16.512 52.5919986,16.416001 52.872,16.224 C53.1520014,16.031999 53.292,15.7640017 53.292,15.42 C53.292,15.0599982 53.1460015,14.7880009 52.854,14.604 C52.5619986,14.4199991 52.0560036,14.328 51.336,14.328 L49.188,14.328 L49.6200001,9.6 L54.744,9.6 L54.744,11.16 L51.24,11.16 L51.1080001,12.756 L51.792,12.756 Z" id="Дом-5" fill="#333333"></path>
                    </g>
                    <g id="Group-9-Copy-10" transform="translate(423.000000, 582.000000)">
                        <rect id="Rectangle" fill="#FFFFFF" x="0" y="0" width="70" height="27" rx="13.5"></rect>
                        <path d="M24.2053332,16.416 L24.2053332,19.74 L22.4053332,19.74 L22.4053332,18 L16.4773332,18 L16.4773332,19.74 L14.6773332,19.74 L14.6893332,16.416 L15.0253332,16.416 C15.5293358,16.3999999 15.8853322,16.0320036 16.0933332,15.312 C16.3013343,14.5919964 16.429333,13.5640067 16.4773332,12.228 L16.5733332,9.6 L23.0293332,9.6 L23.0293332,16.416 L24.2053332,16.416 Z M18.1933332,12.408 C18.153333,13.408005 18.0693339,14.2459966 17.9413332,14.922 C17.8133326,15.5980034 17.6173346,16.0959984 17.3533332,16.416 L21.1093332,16.416 L21.1093332,11.184 L18.2293332,11.184 L18.1933332,12.408 Z M29.1879999,18.144 C28.3159956,18.144 27.5300034,17.9560019 26.8299999,17.58 C26.1299964,17.2039981 25.5820019,16.6860033 25.1859999,16.026 C24.789998,15.3659967 24.5919999,14.6240041 24.5919999,13.8 C24.5919999,12.9759959 24.789998,12.2340033 25.1859999,11.574 C25.5820019,10.9139967 26.1299964,10.3960019 26.8299999,10.02 C27.5300034,9.64399812 28.3159956,9.456 29.1879999,9.456 C30.0600043,9.456 30.8439965,9.64399812 31.5399999,10.02 C32.2360034,10.3960019 32.7839979,10.9139967 33.184,11.574 C33.5840019,12.2340033 33.7839999,12.9759959 33.7839999,13.8 C33.7839999,14.6240041 33.5840019,15.3659967 33.184,16.026 C32.7839979,16.6860033 32.2360034,17.2039981 31.5399999,17.58 C30.8439965,17.9560019 30.0600043,18.144 29.1879999,18.144 Z M29.1879999,16.488 C29.6840024,16.488 30.1319979,16.3740011 30.5319999,16.146 C30.9320019,15.9179989 31.2459988,15.600002 31.4739999,15.192 C31.7020011,14.783998 31.8159999,14.3200026 31.8159999,13.8 C31.8159999,13.2799974 31.7020011,12.816002 31.4739999,12.408 C31.2459988,11.999998 30.9320019,11.6820011 30.5319999,11.454 C30.1319979,11.2259989 29.6840024,11.112 29.1879999,11.112 C28.6919975,11.112 28.2440019,11.2259989 27.8439999,11.454 C27.4439979,11.6820011 27.1300011,11.999998 26.9019999,12.408 C26.6739988,12.816002 26.5599999,13.2799974 26.5599999,13.8 C26.5599999,14.3200026 26.6739988,14.783998 26.9019999,15.192 C27.1300011,15.600002 27.4439979,15.9179989 27.8439999,16.146 C28.2440019,16.3740011 28.6919975,16.488 29.1879999,16.488 Z M42.5946667,18 L42.5826667,12.972 L40.1106666,17.112 L39.2466666,17.112 L36.7746667,13.068 L36.7746667,18 L34.9506667,18 L34.9506667,9.6 L36.5586666,9.6 L39.7026666,14.82 L42.7986667,9.6 L44.4066666,9.6 L44.4186666,18 L42.5946667,18 Z M52.704,12.732 C53.2400027,12.732 53.7279978,12.8399989 54.168,13.056 C54.6080022,13.2720011 54.9559988,13.577998 55.2120001,13.974 C55.4680013,14.370002 55.5960001,14.8279974 55.5960001,15.348 C55.5960001,15.9080028 55.4560015,16.3999979 55.176,16.824 C54.8959986,17.2480021 54.5140025,17.5739989 54.03,17.802 C53.5459976,18.0300011 53.008003,18.144 52.416,18.144 C51.2399942,18.144 50.3200034,17.7840036 49.656,17.064 C48.9919967,16.3439964 48.6600001,15.3160067 48.6600001,13.98 C48.6600001,13.0279952 48.8399983,12.2120034 49.2,11.532 C49.5600018,10.8519966 50.0619968,10.3360018 50.7060001,9.984 C51.3500033,9.63199824 52.0959958,9.456 52.944,9.456 C53.3920023,9.456 53.821998,9.5059995 54.234,9.606 C54.6460021,9.7060005 54.9959986,9.84799908 55.284,10.032 L54.564,11.46 C54.147998,11.1799986 53.6240032,11.04 52.992,11.04 C52.2799965,11.04 51.7160021,11.2479979 51.3,11.664 C50.883998,12.0800021 50.6600002,12.683996 50.628,13.476 C51.1240025,12.9799975 51.8159956,12.732 52.704,12.732 Z M52.308,16.692 C52.7240021,16.692 53.0619988,16.5800011 53.322,16.356 C53.5820013,16.1319989 53.7120001,15.8280019 53.7120001,15.444 C53.7120001,15.0599981 53.5820013,14.7540011 53.322,14.526 C53.0619988,14.2979989 52.7160022,14.184 52.284,14.184 C51.8599979,14.184 51.5120014,14.3019988 51.24,14.538 C50.9679987,14.7740012 50.832,15.0759982 50.832,15.444 C50.832,15.8120018 50.9639987,16.1119988 51.228,16.344 C51.4920014,16.5760012 51.8519978,16.692 52.308,16.692 Z" id="Дом-6" fill="#333333"></path>
                    </g>
                    <g id="Group-9-Copy-12" transform="translate(865.000000, 700.000000)">
                        <rect id="Rectangle" fill="#FFFFFF" x="0" y="0" width="70" height="27" rx="13.5"></rect>
                        <path d="M24.3073332,16.416 L24.3073332,19.74 L22.5073332,19.74 L22.5073332,18 L16.5793332,18 L16.5793332,19.74 L14.7793332,19.74 L14.7913332,16.416 L15.1273332,16.416 C15.6313358,16.3999999 15.9873322,16.0320036 16.1953332,15.312 C16.4033343,14.5919964 16.531333,13.5640067 16.5793332,12.228 L16.6753332,9.6 L23.1313332,9.6 L23.1313332,16.416 L24.3073332,16.416 Z M18.2953332,12.408 C18.255333,13.408005 18.1713339,14.2459966 18.0433332,14.922 C17.9153326,15.5980034 17.7193346,16.0959984 17.4553332,16.416 L21.2113332,16.416 L21.2113332,11.184 L18.3313332,11.184 L18.2953332,12.408 Z M29.2899999,18.144 C28.4179956,18.144 27.6320034,17.9560019 26.9319999,17.58 C26.2319964,17.2039981 25.6840019,16.6860033 25.2879999,16.026 C24.891998,15.3659967 24.6939999,14.6240041 24.6939999,13.8 C24.6939999,12.9759959 24.891998,12.2340033 25.2879999,11.574 C25.6840019,10.9139967 26.2319964,10.3960019 26.9319999,10.02 C27.6320034,9.64399812 28.4179956,9.456 29.2899999,9.456 C30.1620043,9.456 30.9459965,9.64399812 31.6419999,10.02 C32.3380034,10.3960019 32.8859979,10.9139967 33.2859999,11.574 C33.6860019,12.2340033 33.8859999,12.9759959 33.8859999,13.8 C33.8859999,14.6240041 33.6860019,15.3659967 33.2859999,16.026 C32.8859979,16.6860033 32.3380034,17.2039981 31.6419999,17.58 C30.9459965,17.9560019 30.1620043,18.144 29.2899999,18.144 Z M29.2899999,16.488 C29.7860024,16.488 30.2339979,16.3740011 30.6339999,16.146 C31.0340019,15.9179989 31.3479988,15.600002 31.5759999,15.192 C31.8040011,14.783998 31.9179999,14.3200026 31.9179999,13.8 C31.9179999,13.2799974 31.8040011,12.816002 31.5759999,12.408 C31.3479988,11.999998 31.0340019,11.6820011 30.6339999,11.454 C30.2339979,11.2259989 29.7860024,11.112 29.2899999,11.112 C28.7939975,11.112 28.3460019,11.2259989 27.9459999,11.454 C27.5459979,11.6820011 27.2320011,11.999998 27.0039999,12.408 C26.7759988,12.816002 26.6619999,13.2799974 26.6619999,13.8 C26.6619999,14.3200026 26.7759988,14.783998 27.0039999,15.192 C27.2320011,15.600002 27.5459979,15.9179989 27.9459999,16.146 C28.3460019,16.3740011 28.7939975,16.488 29.2899999,16.488 Z M42.6966666,18 L42.6846666,12.972 L40.2126667,17.112 L39.3486666,17.112 L36.8766666,13.068 L36.8766666,18 L35.0526666,18 L35.0526666,9.6 L36.6606666,9.6 L39.8046667,14.82 L42.9006666,9.6 L44.5086666,9.6 L44.5206666,18 L42.6966666,18 Z M55.3380001,9.6 L55.3380001,10.86 L52.2180001,18 L50.106,18 L53.118,11.184 L50.3340001,11.184 L50.3340001,12.552 L48.606,12.552 L48.606,9.6 L55.3380001,9.6 Z" id="Дом-7" fill="#333333"></path>
                    </g>
                    <g id="Group-9-Copy-13" transform="translate(1230.000000, 727.000000)">
                        <rect id="Rectangle" fill="#FFFFFF" x="0" y="0" width="70" height="27" rx="13.5"></rect>
                        <path d="M24.0673332,16.416 L24.0673332,19.74 L22.2673332,19.74 L22.2673332,18 L16.3393332,18 L16.3393332,19.74 L14.5393332,19.74 L14.5513332,16.416 L14.8873332,16.416 C15.3913358,16.3999999 15.7473322,16.0320036 15.9553332,15.312 C16.1633343,14.5919964 16.291333,13.5640067 16.3393332,12.228 L16.4353332,9.6 L22.8913332,9.6 L22.8913332,16.416 L24.0673332,16.416 Z M18.0553332,12.408 C18.015333,13.408005 17.9313339,14.2459966 17.8033332,14.922 C17.6753326,15.5980034 17.4793346,16.0959984 17.2153332,16.416 L20.9713332,16.416 L20.9713332,11.184 L18.0913332,11.184 L18.0553332,12.408 Z M29.0499999,18.144 C28.1779956,18.144 27.3920034,17.9560019 26.6919999,17.58 C25.9919964,17.2039981 25.4440019,16.6860033 25.0479999,16.026 C24.651998,15.3659967 24.4539999,14.6240041 24.4539999,13.8 C24.4539999,12.9759959 24.651998,12.2340033 25.0479999,11.574 C25.4440019,10.9139967 25.9919964,10.3960019 26.6919999,10.02 C27.3920034,9.64399812 28.1779956,9.456 29.0499999,9.456 C29.9220043,9.456 30.7059965,9.64399812 31.4019999,10.02 C32.0980034,10.3960019 32.6459979,10.9139967 33.0459999,11.574 C33.4460019,12.2340033 33.6459999,12.9759959 33.6459999,13.8 C33.6459999,14.6240041 33.4460019,15.3659967 33.0459999,16.026 C32.6459979,16.6860033 32.0980034,17.2039981 31.4019999,17.58 C30.7059965,17.9560019 29.9220043,18.144 29.0499999,18.144 Z M29.0499999,16.488 C29.5460024,16.488 29.9939979,16.3740011 30.3939999,16.146 C30.7940019,15.9179989 31.1079988,15.600002 31.3359999,15.192 C31.5640011,14.783998 31.6779999,14.3200026 31.6779999,13.8 C31.6779999,13.2799974 31.5640011,12.816002 31.3359999,12.408 C31.1079988,11.999998 30.7940019,11.6820011 30.3939999,11.454 C29.9939979,11.2259989 29.5460024,11.112 29.0499999,11.112 C28.5539975,11.112 28.1060019,11.2259989 27.7059999,11.454 C27.3059979,11.6820011 26.9920011,11.999998 26.7639999,12.408 C26.5359988,12.816002 26.4219999,13.2799974 26.4219999,13.8 C26.4219999,14.3200026 26.5359988,14.783998 26.7639999,15.192 C26.9920011,15.600002 27.3059979,15.9179989 27.7059999,16.146 C28.1060019,16.3740011 28.5539975,16.488 29.0499999,16.488 Z M42.4566666,18 L42.4446666,12.972 L39.9726666,17.112 L39.1086666,17.112 L36.6366666,13.068 L36.6366666,18 L34.8126666,18 L34.8126666,9.6 L36.4206667,9.6 L39.5646666,14.82 L42.6606666,9.6 L44.2686667,9.6 L44.2806667,18 L42.4566666,18 Z M54.2700001,13.584 C54.6860021,13.792001 55.003999,14.0639983 55.2240001,14.4 C55.4440012,14.7360017 55.554,15.1239978 55.554,15.564 C55.554,16.0840026 55.4060015,16.5379981 55.11,16.926 C54.8139986,17.3140019 54.3980027,17.6139989 53.8620001,17.826 C53.3259974,18.0380011 52.7060036,18.144 52.0020001,18.144 C51.2979965,18.144 50.6800027,18.0380011 50.1480001,17.826 C49.6159974,17.6139989 49.2040015,17.3140019 48.9120001,16.926 C48.6199986,16.5379981 48.4740001,16.0840026 48.4740001,15.564 C48.4740001,15.1239978 48.583999,14.7360017 48.804,14.4 C49.0240012,14.0639983 49.337998,13.792001 49.7460001,13.584 C49.4339985,13.391999 49.1940009,13.1500015 49.0260001,12.858 C48.8579992,12.5659985 48.774,12.2320019 48.774,11.856 C48.774,11.3679976 48.9099987,10.9440018 49.182,10.584 C49.4540014,10.2239982 49.8339976,9.94600098 50.322,9.75 C50.8100025,9.55399902 51.3699969,9.456 52.0020001,9.456 C52.6420033,9.456 53.2079976,9.55399902 53.7,9.75 C54.1920025,9.94600098 54.5739987,10.2239982 54.8460001,10.584 C55.1180014,10.9440018 55.2540001,11.3679976 55.2540001,11.856 C55.2540001,12.2320019 55.1700009,12.5659985 55.0020001,12.858 C54.8339992,13.1500015 54.5900017,13.391999 54.2700001,13.584 Z M52.0020001,10.884 C51.6099981,10.884 51.2960012,10.9779991 51.06,11.166 C50.8239989,11.3540009 50.7060001,11.6119984 50.7060001,11.94 C50.7060001,12.2600016 50.8219989,12.5119991 51.054,12.696 C51.2860012,12.8800009 51.6019981,12.972 52.0020001,12.972 C52.4020021,12.972 52.7219989,12.8800009 52.9620001,12.696 C53.2020013,12.5119991 53.322,12.2600016 53.322,11.94 C53.322,11.6119984 53.2020013,11.3540009 52.9620001,11.166 C52.7219989,10.9779991 52.4020021,10.884 52.0020001,10.884 Z M52.0020001,16.716 C52.4900025,16.716 52.8759986,16.6060011 53.1600001,16.386 C53.4440015,16.1659989 53.586,15.8720018 53.586,15.504 C53.586,15.1359982 53.4440015,14.8440011 53.1600001,14.628 C52.8759986,14.4119989 52.4900025,14.304 52.0020001,14.304 C51.5219977,14.304 51.1420015,14.4119989 50.8620001,14.628 C50.5819987,14.8440011 50.4420001,15.1359982 50.4420001,15.504 C50.4420001,15.8800019 50.5819987,16.1759989 50.8620001,16.392 C51.1420015,16.6080011 51.5219977,16.716 52.0020001,16.716 Z" id="Дом-8" fill="#333333"></path>
                    </g>
                    <g id="Group-9-Copy-11" transform="translate(1335.000000, 398.000000)">
                        <rect id="Rectangle" fill="#FFFFFF" x="0" y="0" width="70" height="27" rx="13.5"></rect>
                        <path d="M23.8933332,16.416 L23.8933332,19.74 L22.0933332,19.74 L22.0933332,18 L16.1653332,18 L16.1653332,19.74 L14.3653332,19.74 L14.3773332,16.416 L14.7133332,16.416 C15.2173358,16.3999999 15.5733322,16.0320036 15.7813332,15.312 C15.9893343,14.5919964 16.117333,13.5640067 16.1653332,12.228 L16.2613332,9.6 L22.7173332,9.6 L22.7173332,16.416 L23.8933332,16.416 Z M17.8813332,12.408 C17.841333,13.408005 17.7573339,14.2459966 17.6293332,14.922 C17.5013326,15.5980034 17.3053346,16.0959984 17.0413332,16.416 L20.7973332,16.416 L20.7973332,11.184 L17.9173332,11.184 L17.8813332,12.408 Z M28.8759999,18.144 C28.0039956,18.144 27.2180034,17.9560019 26.5179999,17.58 C25.8179964,17.2039981 25.2700019,16.6860033 24.8739999,16.026 C24.477998,15.3659967 24.2799999,14.6240041 24.2799999,13.8 C24.2799999,12.9759959 24.477998,12.2340033 24.8739999,11.574 C25.2700019,10.9139967 25.8179964,10.3960019 26.5179999,10.02 C27.2180034,9.64399812 28.0039956,9.456 28.8759999,9.456 C29.7480043,9.456 30.5319965,9.64399812 31.2279999,10.02 C31.9240034,10.3960019 32.4719979,10.9139967 32.8719999,11.574 C33.2720019,12.2340033 33.4719999,12.9759959 33.4719999,13.8 C33.4719999,14.6240041 33.2720019,15.3659967 32.8719999,16.026 C32.4719979,16.6860033 31.9240034,17.2039981 31.2279999,17.58 C30.5319965,17.9560019 29.7480043,18.144 28.8759999,18.144 Z M28.8759999,16.488 C29.3720024,16.488 29.8199979,16.3740011 30.2199999,16.146 C30.6200019,15.9179989 30.9339988,15.600002 31.1619999,15.192 C31.3900011,14.783998 31.5039999,14.3200026 31.5039999,13.8 C31.5039999,13.2799974 31.3900011,12.816002 31.1619999,12.408 C30.9339988,11.999998 30.6200019,11.6820011 30.2199999,11.454 C29.8199979,11.2259989 29.3720024,11.112 28.8759999,11.112 C28.3799975,11.112 27.9320019,11.2259989 27.5319999,11.454 C27.1319979,11.6820011 26.8180011,11.999998 26.5899999,12.408 C26.3619988,12.816002 26.2479999,13.2799974 26.2479999,13.8 C26.2479999,14.3200026 26.3619988,14.783998 26.5899999,15.192 C26.8180011,15.600002 27.1319979,15.9179989 27.5319999,16.146 C27.9320019,16.3740011 28.3799975,16.488 28.8759999,16.488 Z M42.2826666,18 L42.2706666,12.972 L39.7986667,17.112 L38.9346666,17.112 L36.4626666,13.068 L36.4626666,18 L34.6386666,18 L34.6386666,9.6 L36.2466666,9.6 L39.3906667,14.82 L42.4866666,9.6 L44.0946666,9.6 L44.1066666,18 L42.2826666,18 Z M56.0400001,16.236 L54.672,16.236 L54.672,18 L52.776,18 L52.776,16.236 L48.252,16.236 L48.252,14.928 L52.2120001,9.6 L54.252,9.6 L50.58,14.652 L52.836,14.652 L52.836,13.08 L54.672,13.08 L54.672,14.652 L56.0400001,14.652 L56.0400001,16.236 Z" id="Дом-4" fill="#333333"></path>
                    </g>
                    <g id="Group-8" transform="translate(1243.500000, 863.500000) rotate(-14.000000) translate(-1243.500000, -863.500000) translate(1197.000000, 817.000000)">
                        <circle id="Oval" fill="#FFFFFF" cx="46.5" cy="46.5" r="46.5"></circle>
                        <g id="Ресурс-10" transform="translate(11.000000, 10.000000)">
                            <polygon id="Path" fill="#FF7F50" points="39.5418572 33.0163238 35.972705 10 32.4503442 33.0240027 9 36.5281561 32.4581428 39.9836762 36.027295 63 39.5496558 39.9759973 63 36.4718439"></polygon>
                            <polygon id="Path" fill="#4D4D4D" points="36.4947798 34.4836066 25 26.0235656 33.4827508 37.5026184 25.0208806 49 36.5026101 40.5163934 48 48.9764344 39.5172492 37.4973816 47.9765093 26"></polygon>
                            <path d="M34.956054,6.54861119 C34.3599696,6.25954022 33.8629222,5.82746525 33.5191948,5.2995736 C33.1697216,4.75383939 32.9903969,4.13219987 33.0004045,3.50115657 C32.9902471,2.86945119 33.1715839,2.24735055 33.5246272,1.70273953 C33.8710886,1.17446026 34.3697132,0.741795072 34.9669187,0.451238362 C35.5984472,0.146112792 36.3048836,-0.00898707664 37.0203507,0.000402311196 C37.5965724,-0.00553735478 38.1682646,0.0933094538 38.701666,0.291105339 C39.1979557,0.478439739 39.6389105,0.768697132 39.9891353,1.13857857 L39.1009445,1.90721709 C38.592904,1.38895425 37.860892,1.09746947 37.0964037,1.10901555 C36.6142186,1.10095289 36.1379375,1.2061918 35.7138682,1.41450009 C35.3122924,1.61125656 34.9799855,1.90668324 34.7550567,2.26690049 C34.523261,2.64295836 34.4051928,3.06791192 34.412818,3.49869298 C34.4054505,3.92944691 34.5235021,4.35434072 34.7550567,4.73048547 C34.9803489,5.08897122 35.3114651,5.38332247 35.711152,5.58042229 C36.1352213,5.78873058 36.6115025,5.89396949 37.0936875,5.88590683 C37.8598456,5.89888761 38.5936687,5.60617644 39.1009445,5.08524171 L40,5.86373456 C39.649118,6.23344145 39.2071074,6.52293722 38.7098146,6.70874421 C38.1736289,6.906741 37.5992318,7.00557647 37.0203507,6.99944724 C36.3012177,7.01050987 35.5908149,6.85536009 34.956054,6.54861119 Z" id="Path" fill="#4D4D4D"></path>
                            <path d="M71.6486203,36.9809939 C72.2237087,37.7739906 72.0786886,38.8747105 71.317547,39.4938799 C70.8608356,39.8312933 70.2012356,40 69.3387472,40 L66,40 L66,33.0054209 L69.1477433,33.0054209 C69.7979824,32.9673059 70.4440741,33.1309016 70.9966605,33.4735819 C71.4313277,33.7749257 71.6810399,34.2759611 71.6588072,34.802147 C71.6699957,35.1365109 71.5813869,35.4666909 71.4041354,35.7511221 C71.2160515,36.0246905 70.9500026,36.2361827 70.64012,36.3584662 C71.034164,36.4545813 71.3873058,36.6725689 71.6486203,36.9809939 Z M67.2886393,35.9965904 L69.0356877,35.9965904 C69.3765159,36.0183585 69.7152404,35.9295509 70.0008938,35.7435303 C70.2270617,35.566487 70.3509073,35.2900712 70.3319672,35.0045951 C70.3503992,34.7177719 70.2268179,34.4400569 70.0008938,34.2605986 C69.715858,34.0732043 69.3766608,33.9842728 69.0356877,34.0075386 L67.2886393,34.0075386 L67.2886393,35.9965904 Z M70.6834142,37.9653974 C70.6834142,37.2905706 70.2216094,36.9531573 69.2979997,36.9531573 L67.2886393,36.9531573 L67.2886393,39.0054741 L69.2979997,39.0054741 C70.2233072,39.0054741 70.685112,38.6562513 70.6834142,37.9578056 L70.6834142,37.9653974 Z" id="Shape" fill="#4D4D4D" fill-rule="nonzero"></path>
                            <path d="M5.62482476,36.9915221 C6.14534762,37.6059164 6.12193867,38.473464 5.56892258,39.0632855 C5.25450245,39.3788112 4.8590774,39.6165519 4.41893474,39.7546906 C3.91510873,39.9207583 3.38345066,40.0037537 2.8483495,39.9998697 C2.34882222,39.9994549 1.8517174,39.9359335 1.37093457,39.8110818 C0.885066735,39.6871536 0.422712346,39.4953178 0,39.2422663 L0.441893474,38.3228447 C0.769354427,38.5248095 1.12844576,38.6794277 1.50669703,38.7813296 C1.88490391,38.8862435 2.27766948,38.9399277 2.67265692,38.940696 C3.15393442,38.9565194 3.6310186,38.8532287 4.05423952,38.6415775 C4.39351585,38.4862891 4.60727831,38.166713 4.60527536,37.8177757 C4.61758318,37.5423318 4.46541815,37.2827276 4.20863604,37.1410814 C3.87079911,36.9711993 3.48824498,36.8913913 3.10390235,36.910613 L1.39755466,36.910613 L1.39755466,35.9298966 L2.99475999,35.9298966 C3.33204154,35.9472908 3.66662619,35.8657436 3.95042118,35.6969764 C4.17404449,35.5554813 4.30437612,35.3190961 4.29648233,35.0693179 C4.30208865,34.7633548 4.12255633,34.4798895 3.83063078,34.3337806 C3.47441427,34.148948 3.07076522,34.055793 2.66200888,34.0640836 C2.31746055,34.0662618 1.97470222,34.1099475 1.64245948,34.1940285 C1.29629574,34.280612 0.964179596,34.4092338 0.654854184,34.5765079 L0.210298701,33.5614664 C0.590555499,33.3749163 0.994814388,33.2332314 1.41352672,33.1397584 C1.82761023,33.0477036 2.25200684,33.0007978 2.67798093,33.0000063 C3.19285695,32.999168 3.70383974,33.0821717 4.18733997,33.2451854 C4.60774123,33.3770236 4.98505036,33.6047628 5.28408763,33.907169 C5.78478641,34.4408413 5.83180741,35.2183667 5.39855401,35.7999517 C5.19569012,36.0572391 4.91920949,36.2575615 4.59995134,36.3785744 C4.99998417,36.4848192 5.35670977,36.6981667 5.62482476,36.9915221 Z" id="Path" fill="#4D4D4D"></path>
                            <path d="M39.1576885,66.4536388 C39.7225079,66.7464809 40.1898691,67.1786717 40.5084918,67.7027899 C41.1638361,68.8240557 41.1638361,70.1786852 40.5084918,71.2999509 C40.1898691,71.8240692 39.7225079,72.25626 39.1576885,72.549102 C37.9990998,73.1240393 36.6160557,73.1505706 35.4330666,72.6205525 C34.9039259,72.376604 34.4493345,72.0122233 34.1113413,71.5611146 C33.7657486,71.1024653 33.5452696,70.5722352 33.4689829,70.0163065 L32.3217253,70.0163065 L32.3217253,72.9038905 L31,72.9038905 L31,66.0988504 L32.3217253,66.0988504 L32.3217253,68.887882 L33.4901305,68.887882 C33.5775993,68.3450112 33.8053014,67.8300834 34.1536366,67.3874224 C34.4972158,66.9504076 34.9512184,66.5991932 35.4753619,66.3649417 C36.023564,66.1193371 36.6250406,65.9945716 37.2332565,66.000298 C37.906198,65.9922194 38.5696795,66.1485165 39.1576885,66.4536388 Z M38.4545307,71.5906804 C38.8220743,71.3902068 39.121638,71.0973392 39.318939,70.7455939 C39.734685,69.961366 39.734685,69.0413749 39.318939,68.2571469 C39.1216887,67.9047282 38.8221716,67.6110524 38.4545307,67.4095967 C38.0801889,67.2084273 37.6547651,67.1046191 37.2226827,67.109012 C36.7921797,67.1039203 36.3682629,67.2078066 35.9961216,67.4095967 C35.6296232,67.6123905 35.3304552,67.9057239 35.1317133,68.2571469 C34.7089281,69.0398295 34.7089281,69.9629114 35.1317133,70.7455939 C35.3306239,71.0962618 35.6298094,71.3887597 35.9961216,71.5906804 C36.3677981,71.7935163 36.7920325,71.8974804 37.2226827,71.891265 C37.6549742,71.8972528 38.0808451,71.7933356 38.4545307,71.5906804 Z" id="Shape" fill="#4D4D4D" fill-rule="nonzero"></path>
                        </g>
                    </g>
                    <rect id="Rectangle" stroke-opacity="0" stroke="#979797" x="0.5" y="0.5" width="1439" height="959"></rect>
                </g>
            </g>
        </g>
    </g>
</svg>