<?xml version="1.0" encoding="UTF-8"?>
<svg width="30px" height="30px" viewBox="0 0 30 30" version="1.1" xmlns="http://www.w3.org/2000/svg" xmlns:xlink="http://www.w3.org/1999/xlink">
    <!-- Generator: Sketch 52.2 (67145) - http://www.bohemiancoding.com/sketch -->
    <title>icn_inst0</title>
    <desc>Created with Sketch.</desc>
    <g id="Symbols" stroke="none" stroke-width="1" fill="none" fill-rule="evenodd">
        <g id="footer" transform="translate(-1027.000000, -220.000000)">
            <g id="icn_inst0" transform="translate(1027.000000, 220.000000)">
                <g>
                    <circle id="Oval" fill="#006CFF" cx="15" cy="15" r="15"></circle>
                    <circle id="Oval" fill="#FFFFFF" cx="19.3575" cy="10.5525" r="1"></circle>
                    <path d="M14.955,19.1775 C17.2870224,19.1775 19.1775,17.2870224 19.1775,14.955 C19.1775,12.6229776 17.2870224,10.7325 14.955,10.7325 C12.6229776,10.7325 10.7325,12.6229776 10.7325,14.955 C10.7161663,16.0798044 11.1557886,17.1633301 11.9512292,17.9587708 C12.7466699,18.7542114 13.8301956,19.1938337 14.955,19.1775 Z M14.955,12.495 C15.9543691,12.491967 16.8568815,13.0920395 17.2407259,14.0147591 C17.6245703,14.9374786 17.4139385,16.0006107 16.7072746,16.7072746 C16.0006107,17.4139385 14.9374786,17.6245703 14.0147591,17.2407259 C13.0920395,16.8568815 12.491967,15.9543691 12.495,14.955 C12.5228623,13.6080892 13.6080892,12.5228623 14.955,12.495 Z" id="Shape" fill="#FFFFFF" fill-rule="nonzero"></path>
                    <path d="M10.905,23.25 L19.095,23.25 C20.1988109,23.2560264 21.2591565,22.8202042 22.0396804,22.0396804 C22.8202042,21.2591565 23.2560264,20.1988109 23.25,19.095 L23.25,10.905 C23.2560264,9.80118905 22.8202042,8.74084348 22.0396804,7.96031964 C21.2591565,7.1797958 20.1988109,6.7439736 19.095,6.75 L10.905,6.75 C9.80057377,6.74193817 8.73904272,7.17710655 7.95807463,7.95807463 C7.17710655,8.73904272 6.74193817,9.80057377 6.75,10.905 L6.75,19.095 C6.74193817,20.1994262 7.17710655,21.2609573 7.95807463,22.0419254 C8.73904272,22.8228934 9.80057377,23.2580618 10.905,23.25 Z M8.535,10.905 C8.53099371,10.2745291 8.77916114,9.66861233 9.22427554,9.22208934 C9.66938994,8.77556635 10.2745196,8.52548574 10.905,8.5275 L19.095,8.5275 C19.7261634,8.52549947 20.3320528,8.77534289 20.778355,9.22164502 C21.2246571,9.66794716 21.4745005,10.2738366 21.4725,10.905 L21.4725,19.095 C21.4745005,19.7261634 21.2246571,20.3320528 20.778355,20.778355 C20.3320528,21.2246571 19.7261634,21.4745005 19.095,21.4725 L10.905,21.4725 C10.2745196,21.4745143 9.66938994,21.2244337 9.22427554,20.7779107 C8.77916114,20.3313877 8.53099371,19.7254709 8.535,19.095 L8.535,10.905 Z" id="Shape" fill="#FFFFFF" fill-rule="nonzero"></path>
                </g>
            </g>
        </g>
    </g>
</svg>