<?xml version="1.0" encoding="UTF-8"?>
<svg width="43px" height="43px" viewBox="0 0 43 43" version="1.1" xmlns="http://www.w3.org/2000/svg" xmlns:xlink="http://www.w3.org/1999/xlink">
    <!-- Generator: Sketch 52.2 (67145) - http://www.bohemiancoding.com/sketch -->
    <title>map0</title>
    <desc>Created with Sketch.</desc>
    <g id="map0" stroke="none" stroke-width="1" fill="none" fill-rule="evenodd" stroke-linejoin="round">
        <g stroke-width="1.5">
            <polygon id="Path" stroke="#6CAFFF" points="14.33 39.13 0 43 0 18.87 14.33 15"></polygon>
            <polyline id="Path" stroke="#6CAFFF" points="14.33 15 14.33 39.13 28.67 43 28.67 18.87"></polyline>
            <polygon id="Path" stroke="#6CAFFF" points="43 39.13 28.67 43 28.67 18.87 43 15"></polygon>
            <path d="M21.9,30 C21.600177,29.9873245 21.3280529,29.8210265 21.18,29.56 C20.85,28.94 13.02,14.56 13.02,9.56 C12.964321,4.35452956 17.1248815,0.0822461237 22.33,0 C27.5429901,0.0767971377 31.7111884,4.35680335 31.65,9.57 C31.65,14.57 22.99,28.98 22.65,29.57 C22.4986091,29.8408555 22.2102315,30.006192 21.9,30 Z" id="Path" stroke="#006CFF"></path>
            <circle id="Oval" stroke="#006CFF" cx="22.11" cy="9.11" r="3.75"></circle>
        </g>
    </g>
</svg>