<?xml version="1.0" encoding="UTF-8"?>
<svg width="356px" height="148px" viewBox="0 0 356 148" version="1.1" xmlns="http://www.w3.org/2000/svg" xmlns:xlink="http://www.w3.org/1999/xlink">
    <!-- Generator: Sketch 52.2 (67145) - http://www.bohemiancoding.com/sketch -->
    <title>N_logo0</title>
    <desc>Created with Sketch.</desc>
    <g id="N_logo0" stroke="none" stroke-width="1" fill="none" fill-rule="evenodd">
        <g>
            <polygon id="Path" fill="#006CFF" points="0 0 58.48 61.82 58.48 120.3 0 120.3"></polygon>
            <polygon id="Path" fill="#001835" points="58.48 27.55 116.97 27.55 116.97 147.85 58.48 86.04"></polygon>
            <polygon id="Path" fill="#001835" points="297.49 46.1 283.43 75.35 282.18 75.35 268.11 46.1 256.21 46.1 274.97 85.13 278.73 85.13 286.88 85.13 289.38 85.13 290.63 85.13 309.39 46.1"></polygon>
            <path d="M343.27,85.13 L355.17,85.13 L336.41,46.13 L320.75,46.13 L302,85.13 L313.91,85.13 L317.49,77.67 L339.7,77.67 L343.27,85.13 Z M321.37,69.55 L328,55.87 L329.25,55.87 L335.83,69.55 L321.37,69.55 Z" id="Shape" fill="#001835" fill-rule="nonzero"></path>
            <path d="M229.5,44.83 C215.44,44.83 204.04,51.47 204.04,65.63 C204.04,80 215.44,86.44 229.5,86.44 C243.56,86.44 255,79.91 255,65.63 C255,51.35 243.57,44.83 229.5,44.83 Z M217.8,74.07 C216.27,72.9 214.24,70.75 214.24,65.63 C214.24,63.22 214.61,59.74 217.83,57.25 C220.46,55.25 224.61,54.09 229.5,54.09 C234.39,54.09 238.55,55.22 241.18,57.25 C242.72,58.44 244.77,60.61 244.77,65.63 C244.77,68.07 244.4,71.63 241.2,74.05 C238.58,76.05 234.43,77.17 229.5,77.17 C224.57,77.17 220.41,76.07 217.8,74.07 Z" id="Shape" fill="#001835" fill-rule="nonzero"></path>
            <polygon id="Path" fill="#001835" points="184.78 46.1 184.78 69.45 183.53 69.45 160.18 46.1 158.21 46.1 153.03 46.1 147.15 46.1 147.15 85.15 158.21 85.15 158.21 59.62 159.44 59.62 184.97 85.15 195.84 85.15 195.84 46.1"></polygon>
            <g id="bEDkU3" transform="translate(145.000000, 99.000000)" fill="#001835">
                <path d="M48.51,17.66 L48.51,0.88 L48.67,0.88 C52.56,0.88 60.35,0.88 64.24,0.88 C65.6246766,0.858895633 66.994905,1.16377144 68.24,1.77 C69.6368873,2.38103186 70.658476,3.62179772 70.99,5.11 C71.5523018,7.08457893 70.8503897,9.20221206 69.22,10.45 C68.475413,11.0151189 67.6202045,11.4171691 66.71,11.63 L66.51,11.69 L71.67,17.69 L67.27,17.69 C67.1528554,17.6965668 67.0402132,17.6440005 66.97,17.55 L62.37,12.1 C62.304182,12.0307233 62.2152204,11.9880218 62.12,11.98 L52.31,11.98 L52.31,17.67 L48.51,17.66 Z M52.3,8.78 L64.09,8.78 C64.6346544,8.7876851 65.1773743,8.71352461 65.7,8.56 C66.4169634,8.39491415 66.9854007,7.84952161 67.18,7.14 C67.2509773,6.81170144 67.2778808,6.4754072 67.26,6.14 C67.2505626,5.40037817 66.8082989,4.73502571 66.13,4.44 C65.4814579,4.15654929 64.7772727,4.02323267 64.07,4.05 L52.3,4.05 L52.3,8.78 Z" id="Shape" fill-rule="nonzero"></path>
                <path d="M85.4,18.2 C83.7515367,18.1953748 82.1131678,17.9425401 80.54,17.45 C78.7805091,16.8904346 77.2481341,15.7788491 76.17,14.28 C75.5113933,13.3130145 75.0712004,12.2142384 74.88,11.06 C74.579273,9.41676037 74.6996844,7.72412075 75.23,6.14 C75.851839,4.32157655 77.1279385,2.79952498 78.81,1.87 C80.2237089,1.09063101 81.782739,0.610667593 83.39,0.46 C84.6229634,0.324653756 85.8670366,0.324653756 87.1,0.46 C89.0836452,0.593121623 90.999077,1.23734058 92.66,2.33 C94.2898247,3.43166878 95.4267719,5.12453648 95.83,7.05 C96.3000214,8.97814861 96.1602641,11.0046297 95.43,12.85 C94.765161,14.4988633 93.5495452,15.8664311 91.99,16.72 C90.7541452,17.4135586 89.3959148,17.8617746 87.99,18.04 C87.1321642,18.1608338 86.2661857,18.2143305 85.4,18.2 Z M85.4,14.89 C86.417272,14.8962962 87.4293452,14.7444853 88.4,14.44 C89.5914973,14.1023935 90.6233904,13.3506363 91.31,12.32 C92.0978934,11.0301208 92.3491773,9.48293017 92.01,8.01 C91.69395,6.23547439 90.4310221,4.77677347 88.72,4.21 C87.7937468,3.86797878 86.8171344,3.68211827 85.83,3.66 C84.539244,3.58612247 83.2468394,3.77318103 82.03,4.21 C80.7290986,4.64901845 79.6659665,5.60366769 79.09,6.85 C78.6462268,7.85078699 78.4937219,8.95644731 78.65,10.04 C78.7799305,11.809016 79.8652135,13.3659944 81.48,14.1 C82.7101493,14.6562687 84.0504152,14.9263733 85.4,14.89 Z" id="Shape" fill-rule="nonzero"></path>
                <path d="M0.77,14.84 L2.98,12.22 C3.34,12.5 3.68,12.78 4.04,13.03 C5.31993391,13.9164764 6.78257168,14.5042655 8.32,14.75 C9.99634097,15.0257402 11.7032771,15.0627743 13.39,14.86 C14.1333284,14.802615 14.8559663,14.5878689 15.51,14.23 C16.133543,13.9108301 16.4340965,13.1869617 16.22,12.52 C16.0447646,12.0745168 15.6770073,11.7325025 15.22,11.59 C14.5030427,11.3202943 13.7529178,11.1487411 12.99,11.08 C11.67,10.92 10.35,10.81 9.04,10.65 C7.43766228,10.5026457 5.86487255,10.1254456 4.37,9.53 C3.61589846,9.23946388 2.93361284,8.78915537 2.37,8.21 C1.56075047,7.33302693 1.23864945,6.11203935 1.51,4.95 C1.75829995,3.64816518 2.5714811,2.52363088 3.73,1.88 C4.86068932,1.19472972 6.12001428,0.748860616 7.43,0.57 C10.0699918,0.148269799 12.7694185,0.291421216 15.35,0.99 C16.7433294,1.35195803 18.0561501,1.97274919 19.22,2.82 L19.34,2.91 L17.26,5.53 C16.67,5.2 16.11,4.85 15.53,4.53 C14.4187838,4.02351314 13.2274583,3.71552842 12.01,3.62 C10.7477745,3.46999348 9.47222549,3.46999348 8.21,3.62 C7.45739883,3.68559379 6.72595409,3.90332618 6.06,4.26 C5.58822927,4.48643109 5.2914319,4.96677419 5.3,5.49 C5.31152938,5.813824 5.47924728,6.11198913 5.75,6.29 C6.12647507,6.56586601 6.566968,6.74137491 7.03,6.8 C8.03,6.95 9.03,7.09 10.03,7.18 C11.884285,7.28300135 13.7270695,7.53717853 15.54,7.94 C16.5408972,8.15783729 17.4955231,8.55052028 18.36,9.1 C19.6008204,9.88892579 20.2957923,11.3058963 20.16,12.77 C20.0896099,14.3717726 19.1972744,15.8237084 17.8,16.61 C16.7277655,17.2565425 15.5382998,17.6847501 14.3,17.87 C12.5492102,18.1679416 10.7655741,18.2217872 9,18.03 C7.12292523,17.8694064 5.29023058,17.3714284 3.59,16.56 C2.62089356,16.0894629 1.71117416,15.5053626 0.88,14.82 C0.88,14.82 0.81,14.86 0.77,14.84 Z" id="Path"></path>
                <polygon id="Path" points="31.48 4.18 22.25 4.18 22.25 0.88 44.6 0.88 44.6 4.18 35.33 4.18 35.33 17.66 31.48 17.66"></polygon>
                <path d="M97.31,0.87 L101.46,0.87 C101.597576,0.863961057 101.727654,0.932825691 101.8,1.05 L107.2,8.57 L107.33,8.74 L107.46,8.57 L112.86,1.03 C112.928496,0.927494686 113.047114,0.870098958 113.17,0.88 L117.31,0.88 C117.25,0.96 117.21,1.03 117.17,1.09 L109.38,11.74 C109.276117,11.8702022 109.222839,12.0335878 109.23,12.2 L109.23,17.67 L105.39,17.67 L105.39,17.44 C105.39,15.68 105.39,13.93 105.39,12.17 C105.389283,12.0217248 105.34012,11.8777476 105.25,11.76 C102.643333,8.2 100.036667,4.63333333 97.43,1.06 C97.43,1.06 97.37,1 97.31,0.87 Z" id="Path"></path>
            </g>
        </g>
    </g>
</svg>