<svg xmlns="http://www.w3.org/2000/svg" width="45" height="45" viewBox="0 0 45 45">
    <g fill="none" fill-rule="evenodd" stroke-linejoin="round">
        <g stroke-width="1.5">
            <path stroke="#6CAFFF" d="M3.88 24H21.119999999999997V32H3.88zM0 36h25M3.45 36v8M21.55 36v8" transform="translate(0 1)"/>
            <path stroke="#006CFF" d="M39.55 12.72c-.678-.51-.935-1.408-.63-2.2.388-1.04.584-2.14.58-3.25C39.5 3.26 37 0 34 0s-5.5 3.26-5.5 7.27c-.003 1.127.2 2.246.6 3.3.3.763.05 1.633-.61 2.12-3.356 2.403-4.777 6.698-3.515 10.629 1.262 3.93 4.917 6.596 9.045 6.596s7.783-2.666 9.045-6.596c1.262-3.93-.159-8.226-3.515-10.629v.03zM34 20v24" transform="translate(0 1)"/>
        </g>
    </g>
</svg>
