<?xml version="1.0" encoding="UTF-8"?>
<svg width="44px" height="44px" viewBox="0 0 44 44" version="1.1" xmlns="http://www.w3.org/2000/svg" xmlns:xlink="http://www.w3.org/1999/xlink">
    <!-- Generator: Sketch 52.2 (67145) - http://www.bohemiancoding.com/sketch -->
    <title>tree0</title>
    <desc>Created with Sketch.</desc>
    <g id="tree0" stroke="none" stroke-width="1" fill="none" fill-rule="evenodd" stroke-linejoin="round">
        <g stroke-width="1.5">
            <rect id="Rectangle" stroke="#6CAFFF" x="3.88" y="24" width="17.24" height="8"></rect>
            <path d="M0,36 L25,36" id="Path" stroke="#6CAFFF"></path>
            <path d="M3.45,36 L3.45,44" id="Path" stroke="#6CAFFF"></path>
            <path d="M21.55,36 L21.55,44" id="Path" stroke="#6CAFFF"></path>
            <path d="M39.55,12.72 C38.8723987,12.2095518 38.6152991,11.3117439 38.92,10.52 C39.3077147,9.48050037 39.504211,8.3794433 39.5,7.27 C39.5,3.26 37,0 34,0 C31,0 28.5,3.26 28.5,7.27 C28.4965529,8.39743246 28.6999173,9.51593659 29.1,10.57 C29.4005512,11.33325 29.1502347,12.2032025 28.49,12.69 C25.1335394,15.0928792 23.7128987,19.3882646 24.9747391,23.3185846 C26.2365796,27.2489045 29.8920882,29.9145777 34.02,29.9145777 C38.1479118,29.9145777 41.8034204,27.2489045 43.0652609,23.3185846 C44.3271013,19.3882646 42.9064606,15.0928792 39.55,12.69 L39.55,12.72 Z" id="Path" stroke="#006CFF"></path>
            <path d="M34,20 L34,44" id="Path" stroke="#006CFF"></path>
        </g>
    </g>
</svg>