<?xml version="1.0" encoding="UTF-8"?>
<svg width="708px" height="531px" viewBox="0 0 708 531" version="1.1" xmlns="http://www.w3.org/2000/svg" xmlns:xlink="http://www.w3.org/1999/xlink">
    <!-- Generator: Sketch 52.2 (67145) - http://www.bohemiancoding.com/sketch -->
    <title>Group 10 vector</title>
    <desc>Created with Sketch.</desc>
    <g id="Vnutr" stroke="none" stroke-width="1" fill="none" fill-rule="evenodd">
        <g id="desktop-/-project" transform="translate(-389.000000, -3026.000000)">
            <g id="005" transform="translate(0.000000, 2893.000000)">
                <g id="Group-10-vector">
                    <g id="Group-9" transform="translate(389.000000, 396.000000)">
                        <rect id="Rectangle" fill="#FFFFFF" x="0" y="0" width="70" height="27" rx="13.5"></rect>
                        <path d="M25.6753332,16.416 L25.6753332,19.74 L23.8753332,19.74 L23.8753332,18 L17.9473332,18 L17.9473332,19.74 L16.1473332,19.74 L16.1593332,16.416 L16.4953332,16.416 C16.9993358,16.3999999 17.3553322,16.0320036 17.5633332,15.312 C17.7713343,14.5919964 17.899333,13.5640067 17.9473332,12.228 L18.0433332,9.6 L24.4993332,9.6 L24.4993332,16.416 L25.6753332,16.416 Z M19.6633332,12.408 C19.623333,13.408005 19.5393339,14.2459966 19.4113332,14.922 C19.2833326,15.5980034 19.0873346,16.0959984 18.8233332,16.416 L22.5793332,16.416 L22.5793332,11.184 L19.6993332,11.184 L19.6633332,12.408 Z M30.6579999,18.144 C29.7859956,18.144 29.0000034,17.9560019 28.2999999,17.58 C27.5999964,17.2039981 27.0520019,16.6860033 26.6559999,16.026 C26.259998,15.3659967 26.0619999,14.6240041 26.0619999,13.8 C26.0619999,12.9759959 26.259998,12.2340033 26.6559999,11.574 C27.0520019,10.9139967 27.5999964,10.3960019 28.2999999,10.02 C29.0000034,9.64399812 29.7859956,9.456 30.6579999,9.456 C31.5300043,9.456 32.3139965,9.64399812 33.0099999,10.02 C33.7060034,10.3960019 34.2539979,10.9139967 34.6539999,11.574 C35.0540019,12.2340033 35.2539999,12.9759959 35.2539999,13.8 C35.2539999,14.6240041 35.0540019,15.3659967 34.6539999,16.026 C34.2539979,16.6860033 33.7060034,17.2039981 33.0099999,17.58 C32.3139965,17.9560019 31.5300043,18.144 30.6579999,18.144 Z M30.6579999,16.488 C31.1540024,16.488 31.6019979,16.3740011 32.0019999,16.146 C32.4020019,15.9179989 32.7159988,15.600002 32.9439999,15.192 C33.1720011,14.783998 33.2859999,14.3200026 33.2859999,13.8 C33.2859999,13.2799974 33.1720011,12.816002 32.9439999,12.408 C32.7159988,11.999998 32.4020019,11.6820011 32.0019999,11.454 C31.6019979,11.2259989 31.1540024,11.112 30.6579999,11.112 C30.1619975,11.112 29.7140019,11.2259989 29.3139999,11.454 C28.9139979,11.6820011 28.6000011,11.999998 28.3719999,12.408 C28.1439988,12.816002 28.0299999,13.2799974 28.0299999,13.8 C28.0299999,14.3200026 28.1439988,14.783998 28.3719999,15.192 C28.6000011,15.600002 28.9139979,15.9179989 29.3139999,16.146 C29.7140019,16.3740011 30.1619975,16.488 30.6579999,16.488 Z M44.0646666,18 L44.0526666,12.972 L41.5806666,17.112 L40.7166666,17.112 L38.2446666,13.068 L38.2446666,18 L36.4206667,18 L36.4206667,9.6 L38.0286666,9.6 L41.1726666,14.82 L44.2686667,9.6 L45.8766666,9.6 L45.8886666,18 L44.0646666,18 Z M53.37,9.6 L53.37,18 L51.426,18 L51.426,11.16 L49.746,11.16 L49.746,9.6 L53.37,9.6 Z" id="Дом-1" fill="#333333"></path>
                    </g>
                    <g id="Group-9-Copy" transform="translate(936.000000, 368.000000)">
                        <rect id="Rectangle" fill="#FFFFFF" x="0" y="0" width="133" height="27" rx="13.5"></rect>
                        <path d="M24.5933331,9.6 L24.5933331,18 L22.6613331,18 L22.6613331,11.184 L18.8693331,11.184 L18.8693331,18 L16.9373331,18 L16.9373331,9.6 L24.5933331,9.6 Z M30.3559998,18.144 C29.4839955,18.144 28.6980033,17.9560019 27.9979998,17.58 C27.2979963,17.2039981 26.7500018,16.6860033 26.3539998,16.026 C25.9579979,15.3659967 25.7599998,14.6240041 25.7599998,13.8 C25.7599998,12.9759959 25.9579979,12.2340033 26.3539998,11.574 C26.7500018,10.9139967 27.2979963,10.3960019 27.9979998,10.02 C28.6980033,9.64399812 29.4839955,9.456 30.3559998,9.456 C31.2280042,9.456 32.0119964,9.64399812 32.7079998,10.02 C33.4040033,10.3960019 33.9519978,10.9139967 34.3519998,11.574 C34.7520018,12.2340033 34.9519998,12.9759959 34.9519998,13.8 C34.9519998,14.6240041 34.7520018,15.3659967 34.3519998,16.026 C33.9519978,16.6860033 33.4040033,17.2039981 32.7079998,17.58 C32.0119964,17.9560019 31.2280042,18.144 30.3559998,18.144 Z M30.3559998,16.488 C30.8520023,16.488 31.2999978,16.3740011 31.6999998,16.146 C32.1000018,15.9179989 32.4139987,15.600002 32.6419998,15.192 C32.870001,14.783998 32.9839998,14.3200026 32.9839998,13.8 C32.9839998,13.2799974 32.870001,12.816002 32.6419998,12.408 C32.4139987,11.999998 32.1000018,11.6820011 31.6999998,11.454 C31.2999978,11.2259989 30.8520023,11.112 30.3559998,11.112 C29.8599974,11.112 29.4120018,11.2259989 29.0119998,11.454 C28.6119978,11.6820011 28.298001,11.999998 28.0699998,12.408 C27.8419987,12.816002 27.7279998,13.2799974 27.7279998,13.8 C27.7279998,14.3200026 27.8419987,14.783998 28.0699998,15.192 C28.298001,15.600002 28.6119978,15.9179989 29.0119998,16.146 C29.4120018,16.3740011 29.8599974,16.488 30.3559998,16.488 Z M43.3666665,9.6 L43.3666665,18 L41.4466665,18 L41.4466665,11.184 L38.5666665,11.184 L38.5066665,12.936 C38.4666663,14.128006 38.3706673,15.0939963 38.2186665,15.834 C38.0666658,16.5740037 37.8126683,17.141998 37.4566665,17.538 C37.1006648,17.934002 36.6026697,18.132 35.9626665,18.132 C35.6986652,18.132 35.3786684,18.0880004 35.0026665,18 L35.1226665,16.356 C35.2266671,16.3880002 35.3426659,16.404 35.4706665,16.404 C35.9346689,16.404 36.2586656,16.1300027 36.4426665,15.582 C36.6266675,15.0339973 36.7426663,14.1760058 36.7906665,13.008 L36.9106665,9.6 L43.3666665,9.6 Z M45.1333332,9.6 L47.0653332,9.6 L47.0653332,15.072 L51.0733332,9.6 L52.8973332,9.6 L52.8973332,18 L50.9773332,18 L50.9773332,12.54 L46.9693332,18 L45.1333332,18 L45.1333332,9.6 Z M57.9039999,14.616 L56.5599999,14.616 L56.5599999,18 L54.6279999,18 L54.6279999,9.6 L56.5599999,9.6 L56.5599999,12.996 L57.9519999,12.996 L60.1599999,9.6 L62.2119999,9.6 L59.4639999,13.656 L62.2959999,18 L60.0879999,18 L57.9039999,14.616 Z M70.5666666,9.6 L70.5666666,18 L68.6466666,18 L68.6466666,11.184 L65.7666666,11.184 L65.7066666,12.936 C65.6666664,14.128006 65.5706674,15.0939963 65.4186666,15.834 C65.2666659,16.5740037 65.0126684,17.141998 64.6566666,17.538 C64.3006649,17.934002 63.8026698,18.132 63.1626666,18.132 C62.8986653,18.132 62.5786685,18.0880004 62.2026666,18 L62.3226666,16.356 C62.4266672,16.3880002 62.542666,16.404 62.6706666,16.404 C63.134669,16.404 63.4586657,16.1300027 63.6426666,15.582 C63.8266676,15.0339973 63.9426664,14.1760058 63.9906666,13.008 L64.1106666,9.6 L70.5666666,9.6 Z M72.3333333,9.6 L74.2653333,9.6 L74.2653333,15.072 L78.2733333,9.6 L80.0973333,9.6 L80.0973333,18 L78.1773333,18 L78.1773333,12.54 L74.1693333,18 L72.3333333,18 L72.3333333,9.6 Z M89.556,9.6 L89.556,18 L87.612,18 L87.612,14.556 L83.796,14.556 L83.796,18 L81.852,18 L81.852,9.6 L83.796,9.6 L83.796,12.912 L87.612,12.912 L87.612,9.6 L89.556,9.6 Z M91.3226667,9.6 L93.2546667,9.6 L93.2546667,15.072 L97.2626667,9.6 L99.0866667,9.6 L99.0866667,18 L97.1666667,18 L97.1666667,12.54 L93.1586667,18 L91.3226667,18 L91.3226667,9.6 Z M104.093333,14.616 L102.749333,14.616 L102.749333,18 L100.817333,18 L100.817333,9.6 L102.749333,9.6 L102.749333,12.996 L104.141333,12.996 L106.349333,9.6 L108.401333,9.6 L105.653333,13.656 L108.485333,18 L106.277333,18 L104.093333,14.616 Z M114.584,16.2 L110.684,16.2 L109.94,18 L107.948,18 L111.692,9.6 L113.612,9.6 L117.368,18 L115.328,18 L114.584,16.2 Z M113.972,14.724 L112.64,11.508 L111.308,14.724 L113.972,14.724 Z" id="поликлиника" fill="#333333"></path>
                    </g>
                    <g id="Group-9-Copy-2" transform="translate(557.000000, 637.000000)">
                        <rect id="Rectangle" fill="#FFFFFF" x="0" y="0" width="133" height="27" rx="13.5"></rect>
                        <path d="M30.9833331,16.416 L30.9833331,19.74 L29.1833331,19.74 L29.1833331,18 L23.2553331,18 L23.2553331,19.74 L21.4553331,19.74 L21.4673331,16.416 L21.8033331,16.416 C22.3073357,16.3999999 22.6633321,16.0320036 22.8713331,15.312 C23.0793342,14.5919964 23.2073329,13.5640067 23.2553331,12.228 L23.3513331,9.6 L29.8073331,9.6 L29.8073331,16.416 L30.9833331,16.416 Z M24.9713331,12.408 C24.9313329,13.408005 24.8473338,14.2459966 24.7193331,14.922 C24.5913325,15.5980034 24.3953345,16.0959984 24.1313331,16.416 L27.8873331,16.416 L27.8873331,11.184 L25.0073331,11.184 L24.9713331,12.408 Z M38.4619998,16.44 L38.4619998,18 L31.9579998,18 L31.9579998,9.6 L38.3059998,9.6 L38.3059998,11.16 L33.8899998,11.16 L33.8899998,12.984 L37.7899998,12.984 L37.7899998,14.496 L33.8899998,14.496 L33.8899998,16.44 L38.4619998,16.44 Z M46.1206665,11.184 L43.4326665,11.184 L43.4326665,18 L41.5126665,18 L41.5126665,11.184 L38.8366665,11.184 L38.8366665,9.6 L46.1206665,9.6 L46.1206665,11.184 Z M50.8633332,18.144 C50.007329,18.144 49.2333367,17.9580019 48.5413332,17.586 C47.8493298,17.2139981 47.3053352,16.6980033 46.9093332,16.038 C46.5133313,15.3779967 46.3153332,14.6320042 46.3153332,13.8 C46.3153332,12.9679958 46.5133313,12.2220033 46.9093332,11.562 C47.3053352,10.9019967 47.8493298,10.3860019 48.5413332,10.014 C49.2333367,9.64199814 50.0113289,9.456 50.8753332,9.456 C51.6033369,9.456 52.2613303,9.58399872 52.8493332,9.84 C53.4373362,10.0960013 53.9313312,10.4639976 54.3313332,10.944 L53.0833332,12.096 C52.5153304,11.4399967 51.8113374,11.112 50.9713332,11.112 C50.4513306,11.112 49.9873353,11.2259989 49.5793332,11.454 C49.1713312,11.6820011 48.8533344,11.999998 48.6253332,12.408 C48.3973321,12.816002 48.2833332,13.2799974 48.2833332,13.8 C48.2833332,14.3200026 48.3973321,14.783998 48.6253332,15.192 C48.8533344,15.600002 49.1713312,15.9179989 49.5793332,16.146 C49.9873353,16.3740011 50.4513306,16.488 50.9713332,16.488 C51.8113374,16.488 52.5153304,16.1560033 53.0833332,15.492 L54.3313332,16.644 C53.9313312,17.1320024 53.4353362,17.5039987 52.8433332,17.76 C52.2513303,18.0160013 51.5913369,18.144 50.8633332,18.144 Z M58.5219999,14.616 L57.1779999,14.616 L57.1779999,18 L55.2459999,18 L55.2459999,9.6 L57.1779999,9.6 L57.1779999,12.996 L58.5699999,12.996 L60.7779999,9.6 L62.8299999,9.6 L60.0819999,13.656 L62.9139999,18 L60.7059999,18 L58.5219999,14.616 Z M63.4926666,9.6 L65.4246666,9.6 L65.4246666,15.072 L69.4326666,9.6 L71.2566666,9.6 L71.2566666,18 L69.3366666,18 L69.3366666,12.54 L65.3286667,18 L63.4926666,18 L63.4926666,9.6 Z M73.0113333,9.6 L74.9433333,9.6 L74.9433333,15.072 L78.9513333,9.6 L80.7753333,9.6 L80.7753333,18 L78.8553333,18 L78.8553333,12.54 L74.8473333,18 L73.0113333,18 L73.0113333,9.6 Z M76.8873333,9.06 C75.3513257,9.06 74.5753334,8.44800612 74.5593333,7.224 L75.8913333,7.224 C75.9073334,7.80800292 76.2393301,8.1 76.8873333,8.1 C77.2073349,8.1 77.4513325,8.02600074 77.6193333,7.878 C77.7873342,7.72999926 77.8753333,7.51200144 77.8833333,7.224 L79.2153333,7.224 C79.2073333,7.824003 79.0113353,8.27999844 78.6273333,8.592 C78.2433314,8.90400156 77.6633372,9.06 76.8873333,9.06 Z M89.5646667,18.144 C88.7086625,18.144 87.9346702,17.9580019 87.2426667,17.586 C86.5506633,17.2139981 86.0066687,16.6980033 85.6106667,16.038 C85.2146648,15.3779967 85.0166667,14.6320042 85.0166667,13.8 C85.0166667,12.9679958 85.2146648,12.2220033 85.6106667,11.562 C86.0066687,10.9019967 86.5506633,10.3860019 87.2426667,10.014 C87.9346702,9.64199814 88.7126624,9.456 89.5766667,9.456 C90.3046704,9.456 90.9626638,9.58399872 91.5506667,9.84 C92.1386697,10.0960013 92.6326647,10.4639976 93.0326667,10.944 L91.7846667,12.096 C91.2166639,11.4399967 90.5126709,11.112 89.6726667,11.112 C89.1526641,11.112 88.6886688,11.2259989 88.2806667,11.454 C87.8726647,11.6820011 87.5546679,11.999998 87.3266667,12.408 C87.0986656,12.816002 86.9846667,13.2799974 86.9846667,13.8 C86.9846667,14.3200026 87.0986656,14.783998 87.3266667,15.192 C87.5546679,15.600002 87.8726647,15.9179989 88.2806667,16.146 C88.6886688,16.3740011 89.1526641,16.488 89.6726667,16.488 C90.5126709,16.488 91.2166639,16.1560033 91.7846667,15.492 L93.0326667,16.644 C92.6326647,17.1320024 92.1366697,17.5039987 91.5446667,17.76 C90.9526638,18.0160013 90.2926704,18.144 89.5646667,18.144 Z M99.4913334,16.2 L95.5913334,16.2 L94.8473334,18 L92.8553334,18 L96.5993334,9.6 L98.5193334,9.6 L102.275333,18 L100.235333,18 L99.4913334,16.2 Z M98.8793334,14.724 L97.5473334,11.508 L96.2153334,14.724 L98.8793334,14.724 Z M111.794,16.416 L111.794,19.74 L109.994,19.74 L109.994,18 L104.066,18 L104.066,19.74 L102.266,19.74 L102.278,16.416 L102.614,16.416 C103.118003,16.3999999 103.473999,16.0320036 103.682,15.312 C103.890001,14.5919964 104.018,13.5640067 104.066,12.228 L104.162,9.6 L110.618,9.6 L110.618,16.416 L111.794,16.416 Z M105.782,12.408 C105.742,13.408005 105.658001,14.2459966 105.53,14.922 C105.402,15.5980034 105.206001,16.0959984 104.942,16.416 L108.698,16.416 L108.698,11.184 L105.818,11.184 L105.782,12.408 Z" id="детский-сад" fill="#333333"></path>
                    </g>
                    <g id="Group-9-Copy-4" transform="translate(623.000000, 187.000000)">
                        <rect id="Rectangle" fill="#FFFFFF" x="0" y="0" width="70" height="27" rx="13.5"></rect>
                        <path d="M23.8933332,16.416 L23.8933332,19.74 L22.0933332,19.74 L22.0933332,18 L16.1653332,18 L16.1653332,19.74 L14.3653332,19.74 L14.3773332,16.416 L14.7133332,16.416 C15.2173358,16.3999999 15.5733322,16.0320036 15.7813332,15.312 C15.9893343,14.5919964 16.117333,13.5640067 16.1653332,12.228 L16.2613332,9.6 L22.7173332,9.6 L22.7173332,16.416 L23.8933332,16.416 Z M17.8813332,12.408 C17.841333,13.408005 17.7573339,14.2459966 17.6293332,14.922 C17.5013326,15.5980034 17.3053346,16.0959984 17.0413332,16.416 L20.7973332,16.416 L20.7973332,11.184 L17.9173332,11.184 L17.8813332,12.408 Z M28.8759999,18.144 C28.0039956,18.144 27.2180034,17.9560019 26.5179999,17.58 C25.8179964,17.2039981 25.2700019,16.6860033 24.8739999,16.026 C24.477998,15.3659967 24.2799999,14.6240041 24.2799999,13.8 C24.2799999,12.9759959 24.477998,12.2340033 24.8739999,11.574 C25.2700019,10.9139967 25.8179964,10.3960019 26.5179999,10.02 C27.2180034,9.64399812 28.0039956,9.456 28.8759999,9.456 C29.7480043,9.456 30.5319965,9.64399812 31.2279999,10.02 C31.9240034,10.3960019 32.4719979,10.9139967 32.8719999,11.574 C33.2720019,12.2340033 33.4719999,12.9759959 33.4719999,13.8 C33.4719999,14.6240041 33.2720019,15.3659967 32.8719999,16.026 C32.4719979,16.6860033 31.9240034,17.2039981 31.2279999,17.58 C30.5319965,17.9560019 29.7480043,18.144 28.8759999,18.144 Z M28.8759999,16.488 C29.3720024,16.488 29.8199979,16.3740011 30.2199999,16.146 C30.6200019,15.9179989 30.9339988,15.600002 31.1619999,15.192 C31.3900011,14.783998 31.5039999,14.3200026 31.5039999,13.8 C31.5039999,13.2799974 31.3900011,12.816002 31.1619999,12.408 C30.9339988,11.999998 30.6200019,11.6820011 30.2199999,11.454 C29.8199979,11.2259989 29.3720024,11.112 28.8759999,11.112 C28.3799975,11.112 27.9320019,11.2259989 27.5319999,11.454 C27.1319979,11.6820011 26.8180011,11.999998 26.5899999,12.408 C26.3619988,12.816002 26.2479999,13.2799974 26.2479999,13.8 C26.2479999,14.3200026 26.3619988,14.783998 26.5899999,15.192 C26.8180011,15.600002 27.1319979,15.9179989 27.5319999,16.146 C27.9320019,16.3740011 28.3799975,16.488 28.8759999,16.488 Z M42.2826666,18 L42.2706666,12.972 L39.7986667,17.112 L38.9346666,17.112 L36.4626666,13.068 L36.4626666,18 L34.6386666,18 L34.6386666,9.6 L36.2466666,9.6 L39.3906667,14.82 L42.4866666,9.6 L44.0946666,9.6 L44.1066666,18 L42.2826666,18 Z M56.0400001,16.236 L54.672,16.236 L54.672,18 L52.776,18 L52.776,16.236 L48.252,16.236 L48.252,14.928 L52.2120001,9.6 L54.252,9.6 L50.58,14.652 L52.836,14.652 L52.836,13.08 L54.672,13.08 L54.672,14.652 L56.0400001,14.652 L56.0400001,16.236 Z" id="Дом-4" fill="#333333"></path>
                    </g>
                    <g id="Group-9-Copy-5" transform="translate(693.000000, 133.000000)">
                        <rect id="Rectangle" fill="#FFFFFF" x="0" y="0" width="70" height="27" rx="13.5"></rect>
                        <path d="M24.4753332,16.416 L24.4753332,19.74 L22.6753332,19.74 L22.6753332,18 L16.7473332,18 L16.7473332,19.74 L14.9473332,19.74 L14.9593332,16.416 L15.2953332,16.416 C15.7993358,16.3999999 16.1553322,16.0320036 16.3633332,15.312 C16.5713343,14.5919964 16.699333,13.5640067 16.7473332,12.228 L16.8433332,9.6 L23.2993332,9.6 L23.2993332,16.416 L24.4753332,16.416 Z M18.4633332,12.408 C18.423333,13.408005 18.3393339,14.2459966 18.2113332,14.922 C18.0833326,15.5980034 17.8873346,16.0959984 17.6233332,16.416 L21.3793332,16.416 L21.3793332,11.184 L18.4993332,11.184 L18.4633332,12.408 Z M29.4579999,18.144 C28.5859956,18.144 27.8000034,17.9560019 27.0999999,17.58 C26.3999964,17.2039981 25.8520019,16.6860033 25.4559999,16.026 C25.059998,15.3659967 24.8619999,14.6240041 24.8619999,13.8 C24.8619999,12.9759959 25.059998,12.2340033 25.4559999,11.574 C25.8520019,10.9139967 26.3999964,10.3960019 27.0999999,10.02 C27.8000034,9.64399812 28.5859956,9.456 29.4579999,9.456 C30.3300043,9.456 31.1139965,9.64399812 31.8099999,10.02 C32.5060034,10.3960019 33.0539979,10.9139967 33.4539999,11.574 C33.8540019,12.2340033 34.0539999,12.9759959 34.0539999,13.8 C34.0539999,14.6240041 33.8540019,15.3659967 33.4539999,16.026 C33.0539979,16.6860033 32.5060034,17.2039981 31.8099999,17.58 C31.1139965,17.9560019 30.3300043,18.144 29.4579999,18.144 Z M29.4579999,16.488 C29.9540024,16.488 30.4019979,16.3740011 30.8019999,16.146 C31.2020019,15.9179989 31.5159988,15.600002 31.7439999,15.192 C31.9720011,14.783998 32.0859999,14.3200026 32.0859999,13.8 C32.0859999,13.2799974 31.9720011,12.816002 31.7439999,12.408 C31.5159988,11.999998 31.2020019,11.6820011 30.8019999,11.454 C30.4019979,11.2259989 29.9540024,11.112 29.4579999,11.112 C28.9619975,11.112 28.5140019,11.2259989 28.1139999,11.454 C27.7139979,11.6820011 27.4000011,11.999998 27.1719999,12.408 C26.9439988,12.816002 26.8299999,13.2799974 26.8299999,13.8 C26.8299999,14.3200026 26.9439988,14.783998 27.1719999,15.192 C27.4000011,15.600002 27.7139979,15.9179989 28.1139999,16.146 C28.5140019,16.3740011 28.9619975,16.488 29.4579999,16.488 Z M42.8646666,18 L42.8526666,12.972 L40.3806666,17.112 L39.5166666,17.112 L37.0446666,13.068 L37.0446666,18 L35.2206666,18 L35.2206666,9.6 L36.8286667,9.6 L39.9726666,14.82 L43.0686666,9.6 L44.6766667,9.6 L44.6886667,18 L42.8646666,18 Z M52.8540001,13.02 C53.5900037,13.1400006 54.1539981,13.4139979 54.5460001,13.842 C54.938002,14.2700021 55.134,14.7999968 55.134,15.432 C55.134,15.9200024 55.0060013,16.3699979 54.75,16.782 C54.4939988,17.1940021 54.1040027,17.5239988 53.5800001,17.772 C53.0559974,18.0200012 52.4140039,18.144 51.6540001,18.144 C51.0619971,18.144 50.4800029,18.0660008 49.908,17.91 C49.3359972,17.7539992 48.8500021,17.5320014 48.45,17.244 L49.2060001,15.756 C49.5260016,15.9960012 49.8959979,16.1819993 50.316,16.314 C50.7360022,16.4460007 51.1659978,16.512 51.6060001,16.512 C52.0940025,16.512 52.4779987,16.4180009 52.7580001,16.23 C53.0380015,16.0419991 53.1780001,15.7760017 53.1780001,15.432 C53.1780001,14.7439966 52.6540053,14.4 51.6060001,14.4 L50.7180001,14.4 L50.7180001,13.116 L52.4460001,11.16 L48.8700001,11.16 L48.8700001,9.6 L54.75,9.6 L54.75,10.86 L52.8540001,13.02 Z" id="Дом-3" fill="#333333"></path>
                    </g>
                    <g id="Group-9-Copy-6" transform="translate(981.000000, 147.000000)">
                        <rect id="Rectangle" fill="#FFFFFF" x="0" y="0" width="70" height="27" rx="13.5"></rect>
                        <path d="M24.4573332,16.416 L24.4573332,19.74 L22.6573332,19.74 L22.6573332,18 L16.7293332,18 L16.7293332,19.74 L14.9293332,19.74 L14.9413332,16.416 L15.2773332,16.416 C15.7813358,16.3999999 16.1373322,16.0320036 16.3453332,15.312 C16.5533343,14.5919964 16.681333,13.5640067 16.7293332,12.228 L16.8253332,9.6 L23.2813332,9.6 L23.2813332,16.416 L24.4573332,16.416 Z M18.4453332,12.408 C18.405333,13.408005 18.3213339,14.2459966 18.1933332,14.922 C18.0653326,15.5980034 17.8693346,16.0959984 17.6053332,16.416 L21.3613332,16.416 L21.3613332,11.184 L18.4813332,11.184 L18.4453332,12.408 Z M29.4399999,18.144 C28.5679956,18.144 27.7820034,17.9560019 27.0819999,17.58 C26.3819964,17.2039981 25.8340019,16.6860033 25.4379999,16.026 C25.041998,15.3659967 24.8439999,14.6240041 24.8439999,13.8 C24.8439999,12.9759959 25.041998,12.2340033 25.4379999,11.574 C25.8340019,10.9139967 26.3819964,10.3960019 27.0819999,10.02 C27.7820034,9.64399812 28.5679956,9.456 29.4399999,9.456 C30.3120043,9.456 31.0959965,9.64399812 31.7919999,10.02 C32.4880034,10.3960019 33.0359979,10.9139967 33.4359999,11.574 C33.8360019,12.2340033 34.0359999,12.9759959 34.0359999,13.8 C34.0359999,14.6240041 33.8360019,15.3659967 33.4359999,16.026 C33.0359979,16.6860033 32.4880034,17.2039981 31.7919999,17.58 C31.0959965,17.9560019 30.3120043,18.144 29.4399999,18.144 Z M29.4399999,16.488 C29.9360024,16.488 30.3839979,16.3740011 30.7839999,16.146 C31.1840019,15.9179989 31.4979988,15.600002 31.7259999,15.192 C31.9540011,14.783998 32.0679999,14.3200026 32.0679999,13.8 C32.0679999,13.2799974 31.9540011,12.816002 31.7259999,12.408 C31.4979988,11.999998 31.1840019,11.6820011 30.7839999,11.454 C30.3839979,11.2259989 29.9360024,11.112 29.4399999,11.112 C28.9439975,11.112 28.4960019,11.2259989 28.0959999,11.454 C27.6959979,11.6820011 27.3820011,11.999998 27.1539999,12.408 C26.9259988,12.816002 26.8119999,13.2799974 26.8119999,13.8 C26.8119999,14.3200026 26.9259988,14.783998 27.1539999,15.192 C27.3820011,15.600002 27.6959979,15.9179989 28.0959999,16.146 C28.4960019,16.3740011 28.9439975,16.488 29.4399999,16.488 Z M42.8466666,18 L42.8346666,12.972 L40.3626666,17.112 L39.4986666,17.112 L37.0266666,13.068 L37.0266666,18 L35.2026666,18 L35.2026666,9.6 L36.8106667,9.6 L39.9546666,14.82 L43.0506666,9.6 L44.6586667,9.6 L44.6706667,18 L42.8466666,18 Z M51.792,12.756 C52.976006,12.756 53.8499972,12.9919976 54.414,13.464 C54.9780029,13.9360024 55.2600001,14.567996 55.2600001,15.36 C55.2600001,15.8720026 55.1320013,16.3379979 54.8760001,16.758 C54.6199988,17.1780021 54.2300027,17.5139987 53.7060001,17.766 C53.1819974,18.0180013 52.5360039,18.144 51.768,18.144 C51.1759971,18.144 50.5940029,18.0660008 50.0220001,17.91 C49.4499972,17.7539992 48.9640021,17.5320014 48.5640001,17.244 L49.3320001,15.756 C49.6520017,15.9960012 50.019998,16.1819993 50.4360001,16.314 C50.8520021,16.4460007 51.2799979,16.512 51.7200001,16.512 C52.2080025,16.512 52.5919987,16.416001 52.872,16.224 C53.1520015,16.031999 53.292,15.7640017 53.292,15.42 C53.292,15.0599982 53.1460015,14.7880009 52.854,14.604 C52.5619986,14.4199991 52.0560037,14.328 51.3360001,14.328 L49.188,14.328 L49.6200001,9.6 L54.744,9.6 L54.744,11.16 L51.2400001,11.16 L51.1080001,12.756 L51.792,12.756 Z" id="Дом-5" fill="#333333"></path>
                    </g>
                    <g id="Group-9-Copy-7" transform="translate(1027.000000, 259.000000)">
                        <rect id="Rectangle" fill="#FFFFFF" x="0" y="0" width="70" height="27" rx="13.5"></rect>
                        <path d="M24.4873332,16.416 L24.4873332,19.74 L22.6873332,19.74 L22.6873332,18 L16.7593332,18 L16.7593332,19.74 L14.9593332,19.74 L14.9713332,16.416 L15.3073332,16.416 C15.8113358,16.3999999 16.1673322,16.0320036 16.3753332,15.312 C16.5833343,14.5919964 16.711333,13.5640067 16.7593332,12.228 L16.8553332,9.6 L23.3113332,9.6 L23.3113332,16.416 L24.4873332,16.416 Z M18.4753332,12.408 C18.435333,13.408005 18.3513339,14.2459966 18.2233332,14.922 C18.0953326,15.5980034 17.8993346,16.0959984 17.6353332,16.416 L21.3913332,16.416 L21.3913332,11.184 L18.5113332,11.184 L18.4753332,12.408 Z M29.4699999,18.144 C28.5979956,18.144 27.8120034,17.9560019 27.1119999,17.58 C26.4119964,17.2039981 25.8640019,16.6860033 25.4679999,16.026 C25.071998,15.3659967 24.8739999,14.6240041 24.8739999,13.8 C24.8739999,12.9759959 25.071998,12.2340033 25.4679999,11.574 C25.8640019,10.9139967 26.4119964,10.3960019 27.1119999,10.02 C27.8120034,9.64399812 28.5979956,9.456 29.4699999,9.456 C30.3420043,9.456 31.1259965,9.64399812 31.8219999,10.02 C32.5180034,10.3960019 33.0659979,10.9139967 33.4659999,11.574 C33.8660019,12.2340033 34.0659999,12.9759959 34.0659999,13.8 C34.0659999,14.6240041 33.8660019,15.3659967 33.4659999,16.026 C33.0659979,16.6860033 32.5180034,17.2039981 31.8219999,17.58 C31.1259965,17.9560019 30.3420043,18.144 29.4699999,18.144 Z M29.4699999,16.488 C29.9660024,16.488 30.4139979,16.3740011 30.8139999,16.146 C31.2140019,15.9179989 31.5279988,15.600002 31.7559999,15.192 C31.9840011,14.783998 32.0979999,14.3200026 32.0979999,13.8 C32.0979999,13.2799974 31.9840011,12.816002 31.7559999,12.408 C31.5279988,11.999998 31.2140019,11.6820011 30.8139999,11.454 C30.4139979,11.2259989 29.9660024,11.112 29.4699999,11.112 C28.9739975,11.112 28.5260019,11.2259989 28.1259999,11.454 C27.725998,11.6820011 27.4120011,11.999998 27.1839999,12.408 C26.9559988,12.816002 26.8419999,13.2799974 26.8419999,13.8 C26.8419999,14.3200026 26.9559988,14.783998 27.1839999,15.192 C27.4120011,15.600002 27.725998,15.9179989 28.1259999,16.146 C28.5260019,16.3740011 28.9739975,16.488 29.4699999,16.488 Z M42.8766666,18 L42.8646666,12.972 L40.3926666,17.112 L39.5286666,17.112 L37.0566666,13.068 L37.0566666,18 L35.2326666,18 L35.2326666,9.6 L36.8406667,9.6 L39.9846666,14.82 L43.0806666,9.6 L44.6886667,9.6 L44.7006667,18 L42.8766666,18 Z M55.2180001,16.416 L55.2180001,18 L48.8700001,18 L48.8700001,16.74 L52.1100001,13.68 C52.4540018,13.3519984 52.6859995,13.0700012 52.8060001,12.834 C52.9260007,12.5979988 52.9860001,12.3640012 52.9860001,12.132 C52.9860001,11.7959983 52.8720012,11.5380009 52.6440001,11.358 C52.4159989,11.1779991 52.0820023,11.088 51.6420001,11.088 C51.2739982,11.088 50.9420015,11.1579993 50.646,11.298 C50.3499986,11.4380007 50.102001,11.6479986 49.902,11.928 L48.4860001,11.016 C48.8140017,10.5279976 49.2659972,10.1460014 49.8420001,9.87 C50.4180029,9.59399862 51.0779963,9.456 51.822,9.456 C52.4460032,9.456 52.9919977,9.55799898 53.4600001,9.762 C53.9280024,9.96600102 54.2919988,10.2539981 54.5520001,10.626 C54.8120014,10.9980019 54.9420001,11.4359975 54.9420001,11.94 C54.9420001,12.3960023 54.846001,12.823998 54.6540001,13.224 C54.4619991,13.624002 54.0900028,14.0799974 53.5380001,14.592 L51.6060001,16.416 L55.2180001,16.416 Z" id="Дом-2" fill="#333333"></path>
                    </g>
                    <rect id="Rectangle" stroke-opacity="0" stroke="#979797" x="0.5" y="0.5" width="1439" height="959"></rect>
                </g>
            </g>
        </g>
    </g>
</svg>