<?xml version="1.0" encoding="UTF-8"?>
<svg width="30px" height="30px" viewBox="0 0 30 30" version="1.1" xmlns="http://www.w3.org/2000/svg" xmlns:xlink="http://www.w3.org/1999/xlink">
    <!-- Generator: Sketch 52.2 (67145) - http://www.bohemiancoding.com/sketch -->
    <title>icn_inst0 copy 2</title>
    <desc>Created with Sketch.</desc>
    <g id="Symbols" stroke="none" stroke-width="1" fill="none" fill-rule="evenodd">
        <g id="footer" transform="translate(-1147.000000, -220.000000)">
            <g id="icn_vk0" transform="translate(1147.000000, 220.000000)">
                <g>
                    <circle id="Oval" fill="#006CFF" cx="15" cy="15" r="15"></circle>
                    <path d="M24.09,20.8125 L21.39,20.8125 C20.9048505,20.854286 20.4220316,20.7094404 20.04,20.4075 C19.035,19.71 18.075,17.91 17.3325,18.1575 C16.59,18.405 16.5825,20.025 16.5825,20.025 C16.5820367,20.2161614 16.5217133,20.4023773 16.41,20.5575 C16.2571318,20.6928539 16.0656279,20.7768009 15.8625,20.7975 L14.67,20.7975 C12.752671,20.763696 10.935473,19.9352275 9.6525,18.51 C7.0875,15.855 4.8225,10.5525 4.8225,10.5525 C4.8225,10.5525 4.6875,10.2075 4.8225,10.0425 C4.99619347,9.91351616 5.2061687,9.84264952 5.4225,9.84 L8.31,9.84 C8.47524739,9.87325313 8.63290645,9.93682533 8.775,10.0275 C8.8846537,10.1173165 8.9697964,10.2334201 9.0225,10.365 C9.33872963,11.1364965 9.7019094,11.8879029 10.11,12.615 C11.3175,14.7 11.8875,15.1575 12.2925,14.9325 C12.9,14.595 12.75,12 12.75,12 C12.76546,11.5246921 12.6623603,11.0530112 12.45,10.6275 C12.2222862,10.3660503 11.9027107,10.2022343 11.5575,10.17 C11.3925,10.17 11.655,9.7725 12.0075,9.6075 C12.8251568,9.35766869 13.6834541,9.26852802 14.535,9.345 C15.0118638,9.32514331 15.4891307,9.37312252 15.9525,9.4875 C16.95,9.72 16.6125,10.6575 16.6125,12.885 C16.6125,13.635 16.485,14.61 17.0025,14.94 C17.22,15.0825 17.7525,14.94 19.1175,12.69 C19.5563877,11.9074568 19.9349845,11.0925961 20.25,10.2525 C20.3101197,10.1211089 20.4031155,10.0074472 20.52,9.9225 C20.640755,9.86281381 20.7762094,9.83936979 20.91,9.855 L23.9625,9.855 C23.9625,9.855 24.8775,9.75 25.02,10.1625 C25.1625,10.575 24.6825,11.61 23.4375,13.2675 C21.3975,15.99 21.1875,15.735 22.86,17.31 C23.659508,17.9628326 24.3396064,18.7495137 24.87,19.635 C25.5,20.7225 24.09,20.8125 24.09,20.8125 Z" id="Path" fill="#FFFFFF"></path>
                </g>
            </g>
        </g>
    </g>
</svg>