<?xml version="1.0" encoding="UTF-8"?>
<svg width="48px" height="55px" viewBox="0 0 48 55" version="1.1" xmlns="http://www.w3.org/2000/svg" xmlns:xlink="http://www.w3.org/1999/xlink">
    <!-- Generator: Sketch 52.2 (67145) - http://www.bohemiancoding.com/sketch -->
    <title>pdf</title>
    <desc>Created with Sketch.</desc>
    <defs>
        <polygon id="path-1" points="0.000125844141 0 13.1726031 0 13.1726031 13.6164392 0.000125844141 13.6164392"></polygon>
        <polygon id="path-3" points="0 55 47.4978462 55 47.4978462 0 0 0"></polygon>
    </defs>
    <g id="Vnutr" stroke="none" stroke-width="1" fill="none" fill-rule="evenodd">
        <g id="desktop-/-o-kompanii" transform="translate(-150.000000, -2952.000000)">
            <g id="004_dok" transform="translate(0.000000, 2758.000000)">
                <g id="pdf" transform="translate(150.000000, 194.000000)">
                    <polygon id="Fill-1" fill="#006CFF" points="12.2721231 0.000222972973 0.000369230769 12.7282635 0.000369230769 55.000223 38.1345231 55.000223 38.1345231 47.355223 36.6568615 47.355223 36.6568615 53.5137365 1.47655385 53.5137365 1.47655385 13.3302905 12.8961231 1.48670946 36.6568615 1.48670946 36.6568615 29.4564392 38.1345231 29.4564392 38.1345231 0.000222972973"></polygon>
                    <g id="Group-10" transform="translate(0.000000, 0.000074)">
                        <g id="Group-4">
                            <mask id="mask-2" fill="white">
                                <use xlink:href="#path-1"></use>
                            </mask>
                            <g id="Clip-3"></g>
                            <path d="M2.48411077,12.1299527 L11.69568,12.1299527 L11.69568,2.57630405 L2.48411077,12.1299527 Z M12.4341415,13.6164392 L0.738387692,13.6164392 C0.441526154,13.6164392 0.174203077,13.4380608 0.0582646154,13.1630608 C-0.0569353846,12.8880608 0.00214153846,12.5699527 0.208172308,12.3558986 L11.9039262,0.225425676 C12.1143877,0.00839864865 12.4334031,-0.0592364865 12.7118031,0.0544797297 C12.9902031,0.168195946 13.1726031,0.440222973 13.1726031,0.743466216 L13.1726031,12.8731959 C13.1726031,13.2842095 12.8417723,13.6164392 12.4341415,13.6164392 Z" id="Fill-2" fill="#006CFF" mask="url(#mask-2)"></path>
                        </g>
                        <mask id="mask-4" fill="white">
                            <use xlink:href="#path-3"></use>
                        </mask>
                        <g id="Clip-6"></g>
                        <path d="M12.0516923,48.3918243 L47.4978462,48.3918243 L47.4978462,28.5992568 L12.0516923,28.5992568 L12.0516923,48.3918243 Z M13.5286154,46.9053378 L46.0209231,46.9053378 L46.0209231,30.0857432 L13.5286154,30.0857432 L13.5286154,46.9053378 Z" id="Fill-5" fill="#6CAFFF" mask="url(#mask-4)"></path>
                        <path d="M23.0402215,38.194973 C23.27136,37.9957838 23.3872985,37.7133514 23.3872985,37.3447027 C23.3872985,36.9775405 23.27136,36.6928784 23.0402215,36.489973 C22.8090831,36.2878108 22.4664369,36.1859865 22.0115446,36.1859865 L20.7812677,36.1859865 L20.7812677,38.4930135 L22.0115446,38.4930135 C22.4664369,38.4930135 22.8090831,38.3941622 23.0402215,38.194973 M23.9906215,34.784973 C24.5127138,35.0205811 24.9151754,35.3587568 25.1980062,35.7972703 C25.4815754,36.236527 25.62336,36.7530811 25.62336,37.3447027 C25.62336,37.9378108 25.4815754,38.4521351 25.1980062,38.8869324 C24.9151754,39.322473 24.5127138,39.6576757 23.9906215,39.894027 C23.4692677,40.1303784 22.8541292,40.2485541 22.1459446,40.2485541 L20.7812677,40.2485541 L20.7812677,42.3080811 L18.56736,42.3080811 L18.56736,34.4304459 L22.1459446,34.4304459 C22.8541292,34.4304459 23.4692677,34.5486216 23.9906215,34.784973" id="Fill-7" fill="#006CFF" mask="url(#mask-4)"></path>
                        <path d="M30.3083815,40.5299459 C30.9796431,40.5299459 31.5179815,40.3389324 31.9241354,39.9561622 C32.3302892,39.5733919 32.5341046,39.0442027 32.5341046,38.3693378 C32.5341046,37.694473 32.3302892,37.1652838 31.9241354,36.7825135 C31.5179815,36.3997432 30.9796431,36.2087297 30.3083815,36.2087297 L28.9104738,36.2087297 L28.9104738,40.5299459 L30.3083815,40.5299459 Z M26.6965662,34.4301486 L30.3977354,34.4301486 C31.2550892,34.4301486 32.0157046,34.5921757 32.6788431,34.914 C33.34272,35.2365676 33.8566892,35.6944054 34.2222277,36.2875135 C34.5870277,36.8798784 34.7701662,37.5733243 34.7701662,38.3693378 C34.7701662,39.1646081 34.5870277,39.8587973 34.2222277,40.4519054 C33.8566892,41.043527 33.34272,41.5021081 32.6788431,41.8239324 C32.0157046,42.1472432 31.2550892,42.308527 30.3977354,42.308527 L26.6965662,42.308527 L26.6965662,34.4301486 Z" id="Fill-8" fill="#006CFF" mask="url(#mask-4)"></path>
                        <polygon id="Fill-9" fill="#006CFF" mask="url(#mask-4)" points="38.1469292 36.1517973 38.1469292 37.8850405 41.6021908 37.8850405 41.6021908 39.6071351 38.1469292 39.6071351 38.1469292 42.3080811 35.9330215 42.3080811 35.9330215 34.4304459 42.0718523 34.4304459 42.0718523 36.1517973"></polygon>
                    </g>
                </g>
            </g>
        </g>
    </g>
</svg>