<svg width="69" height="77" xmlns="http://www.w3.org/2000/svg"><g fill="none" fill-rule="evenodd"><path d="M58.08 76H21.168c-3.782-.003-7.41-1.462-10.095-4.059l-5.036-4.93C2.81 63.868.998 59.605 1 55.16c0-4.45 1.811-8.72 5.037-11.87L20.25 29.437c1.966-1.915 5.152-1.915 7.118 0a4.844 4.844 0 010 6.96l-2.127 2.073 3.56-3.47c1.966-1.913 5.151-1.913 7.118 0a4.822 4.822 0 010 6.94l-3.56 3.491 4.992-4.866c1.967-1.914 5.152-1.914 7.119 0a4.822 4.822 0 010 6.939L39.5 52.37l17.91-17.457c1.966-1.915 5.152-1.915 7.118 0a4.822 4.822 0 010 6.938L40.911 64.894l14.327 1.985c3.209.507 5.585 3.181 5.64 6.35 0 1.513-1.245 2.747-2.798 2.771zM22 7.13C38.998 3.382 56.735 9.116 68 22" stroke="#FFF" stroke-width="2" stroke-linecap="round" stroke-linejoin="round"/><path fill="#FFF" d="M29 11.351L4 15 23.725 0z"/></g></svg>