<svg id="Слой_1" data-name="Слой 1" xmlns="http://www.w3.org/2000/svg" viewBox="0 0 45 45"><defs><style>.cls-1,.cls-2{fill:none;stroke-linejoin:round;stroke-width:1.5px;}.cls-1{stroke:#006cff;}.cls-2{stroke:#6cafff;}</style></defs><polyline class="cls-1" points="21.95 6.44 33.57 6.44 38 8.65 38 10.87 33.57 13.08 32.46 11.98 31.36 13.08 30.25 11.98 29.14 13.08 28.04 11.98 26.65 13.08 21.81 13.08"/><line class="cls-1" x1="22.5" y1="8.65" x2="38" y2="8.65"/><circle class="cls-1" cx="14.75" cy="9.76" r="7.75"/><circle class="cls-1" cx="12.54" cy="9.76" r="2.21"/><rect class="cls-2" x="1" y="21.99" width="7.13" height="18.71"/><path class="cls-2" d="M8.13,38.62S14,40.9,16.29,41.73c3.81,1.37,7.36,2.33,15.28-1C43.8,35.5,44,35.19,44,35.19h0a5.66,5.66,0,0,0-4.79-2.81H29.53"/><path class="cls-2" d="M15.72,35.5H30.55a6.88,6.88,0,0,0-7.13-6.61H18.84a9.32,9.32,0,0,0-7.6-3.78H8"/></svg>