<?xml version="1.0" encoding="UTF-8"?>
<svg width="210px" height="184px" viewBox="0 0 210 184" version="1.1" xmlns="http://www.w3.org/2000/svg" xmlns:xlink="http://www.w3.org/1999/xlink">
    <!-- Generator: Sketch 52.2 (67145) - http://www.bohemiancoding.com/sketch -->
    <title>logo_sokurov_10</title>
    <desc>Created with Sketch.</desc>
    <g id="Vnutr" stroke="none" stroke-width="1" fill="none" fill-rule="evenodd">
        <g id="desktop-/-project" transform="translate(-150.000000, -202.000000)" fill="#FFFFFF">
            <g id="logo_sokurov_10" transform="translate(150.000000, 202.000000)">
                <path d="M209.337539,166.25 L0.662460568,166.25 C0.296593699,166.25 4.5967436e-17,165.814721 0,165.277778 C-4.5967436e-17,164.740834 0.296593699,164.305556 0.662460568,164.305556 L209.337539,164.305556 C209.703406,164.305556 210,164.740834 210,165.277778 C210,165.814721 209.703406,166.25 209.337539,166.25 Z" id="Path"></path>
                <path d="M52.1076152,180.828819 L44.1423848,180.828819 C44.0089272,180.854552 43.8770098,180.768795 43.8044328,180.609125 C43.7318557,180.449454 43.7318557,180.24499 43.8044328,180.08532 C43.8770098,179.925649 44.0089272,179.839893 44.1423848,179.865625 L52.1076152,179.865625 C52.2410728,179.839893 52.3729902,179.925649 52.4455672,180.08532 C52.5181443,180.24499 52.5181443,180.449454 52.4455672,180.609125 C52.3729902,180.768795 52.2410728,180.854552 52.1076152,180.828819 Z" id="Path"></path>
                <path d="M165.944654,180.833333 L157.805346,180.833333 C157.630387,180.800038 157.5,180.592461 157.5,180.347222 C157.5,180.101984 157.630387,179.894407 157.805346,179.861111 L165.944654,179.861111 C166.119613,179.894407 166.25,180.101984 166.25,180.347222 C166.25,180.592461 166.119613,180.800038 165.944654,180.833333 Z" id="Path"></path>
                <path d="M63.612577,178.451067 L63.612577,183.75 L61.785107,183.75 L61.785107,178.451067 L60.2777778,178.451067 L60.2777778,176.950883 L65.1132366,176.950883 L65.1132366,178.451067 L63.612577,178.451067 Z M73.8037232,182.571744 L71.1892407,182.571744 L70.769056,183.75 L68.8482117,183.75 L71.516051,176.950883 L73.5169305,176.950883 L76.1847699,183.75 L74.2305775,183.75 L73.8037232,182.571744 Z M73.3235122,181.226085 L72.496482,178.966152 L71.6761214,181.226085 L73.3235122,181.226085 Z M80.1865289,176.944444 L82.3608179,176.944444 L83.788112,179.519868 L85.3688068,176.944444 L87.3696863,176.944444 L82.7810026,183.743561 L80.9401935,183.743561 L82.6609499,181.110191 L80.1865289,176.944444 Z M93.7191439,179.571376 L96.3869833,179.571376 L96.3869833,176.944444 L98.1944444,176.944444 L98.1944444,183.743561 L96.3669745,183.743561 L96.3669745,180.942789 L93.6991352,180.942789 L93.6991352,183.743561 L91.8716652,183.743561 L91.8716652,176.944444 L93.6991352,176.944444 L93.7191439,179.571376 Z" id="Shape" fill-rule="nonzero"></path>
                <path d="M116.186896,183.743567 L114.353818,183.743567 L114.353818,178.455282 L111.687523,178.455282 L111.687523,183.75 L109.861111,183.75 L109.861111,176.949858 L116.160233,176.949858 L116.186896,183.743567 Z M125.858881,182.566248 L123.245912,182.566248 L122.825971,183.743567 L120.87291,183.743567 L123.539205,176.949858 L125.538926,176.949858 L128.205221,183.743567 L126.25216,183.743567 L125.858881,182.566248 Z M125.372283,181.221659 L124.552397,178.963523 L123.732511,181.221659 L125.372283,181.221659 Z M134.757641,183.743567 L132.931229,183.743567 L132.931229,176.949858 L135.844156,176.949858 C136.507166,176.906764 137.160355,177.122314 137.657237,177.548167 C138.098559,177.997052 138.325682,178.603373 138.283816,179.220861 C138.32431,179.840085 138.097507,180.447878 137.657237,180.899988 C137.1578,181.321003 136.505845,181.533832 135.844156,181.491864 L134.757641,181.491864 L134.757641,183.743567 Z M134.757641,180.070074 L135.364223,180.070074 C136.030797,180.070074 136.37075,179.787003 136.37075,179.220861 C136.37075,178.654718 136.037463,178.378081 135.364223,178.378081 L134.757641,178.378081 L134.757641,180.070074 Z M144.976217,179.754836 L147.202573,176.949858 L149.462258,176.949858 L146.67598,180.166576 L149.722222,183.743567 L147.355885,183.743567 L144.976217,180.797053 L144.976217,183.743567 L143.143139,183.743567 L143.143139,176.949858 L144.976217,176.949858 L144.976217,179.754836 Z" id="Shape" fill-rule="nonzero"></path>
                <circle id="Oval" cx="105" cy="179.861111" r="1.94444444"></circle>
                <path d="M155.52233,69.1400268 L154.857811,70.3204176 C154.352777,59.4412599 154.363852,48.5643251 154.891037,37.6896133 L155.555556,38.8633353 C155.112543,48.9555658 155.101468,59.0477963 155.52233,69.1400268 Z M144.112547,18.956744 C134.060597,13.7772513 124.28996,8.11093066 114.800635,1.95778219 L116.129672,1.95778219 C124.989919,7.65300126 134.084963,12.9325271 143.414802,17.7963598 L144.079321,18.9700818 L144.112547,18.956744 Z M94.2736587,1.94444444 C84.667127,8.1759175 74.7555976,13.9205705 64.5763265,19.1568103 L65.240845,17.9830883 C74.7035886,13.0703505 83.9204603,7.73525072 92.8914602,1.97778882 L94.2736587,1.94444444 Z M53.4722222,38.449865 L54.1367407,37.2761431 C54.6949363,48.4265017 54.7082266,59.5790833 54.1766118,70.7338879 L53.5120933,69.5601659 C53.9551057,59.1922886 53.9418153,48.8221883 53.4722222,38.449865 Z M65.2474902,89.9602539 C74.7368145,94.850762 83.9780519,100.185862 92.9712024,105.965553 L91.6089394,105.965553 C83.2581569,100.630454 74.6969434,95.6777025 65.9252991,91.1073003 L65.2607806,89.9335784 L65.2474902,89.9602539 Z M116.076511,105.965553 C124.936758,100.256997 134.056167,94.9752477 143.434738,90.1203069 L142.770219,91.3006977 C134.127049,95.8266407 125.687664,100.717149 117.452064,105.972222 L116.076511,105.965553 Z" id="Shape"></path>
                <path d="M117.702426,106.944444 L112.650084,106.944444 L115.511528,105.115199 C124.361425,99.4821803 133.58311,94.1859539 142.924299,89.3850105 L145.945081,87.8331237 L143.42223,92.1784067 L143.163305,92.3104822 C134.59225,96.7614256 126.107503,101.63501 117.934793,106.785954 L117.702426,106.944444 Z M96.3644156,106.944444 L91.3187132,106.944444 L91.0730671,106.785954 C82.7808536,101.555765 74.169964,96.6227463 65.4860446,92.1189727 L65.2271204,91.9868973 L62.7374646,87.6614256 L65.7516079,89.2067086 C75.218939,94.0604822 84.5667667,99.4161426 93.5295275,105.121803 L96.3644156,106.944444 Z M55.0494075,74.4538784 L52.5331954,70.1218029 L52.5331954,69.8312369 C52.9780139,59.6680294 52.9647357,49.3595388 52.5,39.117086 L52.5,38.8265199 L55.002934,34.5010482 L55.1755501,37.8557652 C55.7265939,48.8774633 55.7398721,60.057652 55.1755501,71.0859539 L55.0494075,74.4538784 Z M153.971731,74.0510482 L153.812393,70.6765199 C153.307823,59.9321803 153.321101,49.0293501 153.845589,38.2651992 L154.011566,34.9038784 L156.527778,39.2359539 L156.527778,39.5265199 C156.082959,49.4321803 156.069681,59.5227463 156.494582,69.4218029 L156.494582,69.7057652 L153.971731,74.0510482 Z M62.0735564,22.4161426 L64.5831295,18.0906709 L64.8420537,17.9585954 C74.2297158,13.1246331 83.4978744,7.80199161 92.3876054,2.10953878 L92.6133342,1.94444444 L97.6258412,1.94444444 L94.7909531,3.76708595 C85.2173967,9.92180294 75.2122999,15.6538784 65.0611434,20.8510482 L62.0735564,22.4161426 Z M146.648824,22.2378407 L143.63468,20.6925577 C133.616305,15.5746331 123.717434,9.88878407 114.27002,3.80010482 L111.401937,1.94444444 L116.414444,1.94444444 L116.66009,2.09633124 C125.456873,7.70293501 134.585611,12.9661426 143.840492,17.7406709 L144.099416,17.8727463 L146.648824,22.2378407 Z" id="Shape" fill-rule="nonzero"></path>
                <path d="M104.996687,5.83333333 C91.7863946,15.0440714 77.7999404,23.0956047 63.1944444,29.8974847 C64.5858241,45.9080619 64.5858241,62.0086048 63.1944444,78.0191819 C77.7986198,84.8235886 91.7848597,92.8749986 104.996687,102.083333 C118.21063,92.8746683 132.199099,84.823251 146.805556,78.0191819 C145.414176,62.0086048 145.414176,45.9080619 146.805556,29.8974847 C132.197778,23.095943 118.209095,15.0444025 104.996687,5.83333333 Z M119.414452,68.5864045 C118.718726,70.2587569 117.657034,71.7550322 116.306947,72.9659083 C114.911719,74.2087945 113.274077,75.1510503 111.496608,75.733649 C109.507053,76.3882399 107.422978,76.7118366 105.327978,76.6914591 C103.736383,76.6958549 102.150836,76.4960465 100.6104,76.0969563 C99.1381448,75.717766 97.7761977,74.9981374 96.6349134,73.9963798 C95.763426,74.6072804 94.8489031,75.1547608 93.8984534,75.6345652 C92.9566388,76.1153578 91.9744938,76.5132054 90.963219,76.8235708 C90.4452811,75.3207038 90.0703739,73.7725736 89.843457,72.1996603 C89.6174306,70.5978437 89.5067174,68.9819505 89.5121664,67.364371 C89.5121664,66.2216046 89.5452955,65.1052604 89.6115536,64.0087331 C89.6778117,62.9122058 89.7970763,61.7958616 89.9759732,60.6530952 L94.262873,60.6530952 C94.2664819,62.1393467 94.455668,63.6193695 94.826067,65.0590213 C95.1848603,66.5250504 95.7969494,67.9176054 96.6349134,69.1743017 C97.4793763,70.4255409 98.5958899,71.4709118 99.9014383,72.2326882 C101.381939,73.0547929 103.057559,73.4632909 104.751532,73.4150882 C106.211956,73.4509113 107.669162,73.261518 109.071561,72.8536133 C110.118366,72.5501543 111.086154,72.0226516 111.907408,71.3079061 C112.610249,70.6891198 113.155324,69.9124949 113.497603,69.04219 C113.826811,68.168017 113.992978,67.2412172 113.987913,66.3074772 C114.035464,64.9297549 113.617824,63.5759861 112.801893,62.4630259 C111.773956,61.2814529 110.422113,60.4250677 108.912541,59.9991421 C106.222462,59.07436 103.764286,58.1693947 101.518136,57.2710349 C99.436857,56.4580648 97.4737413,55.3717614 95.6807966,54.0409032 C94.0804978,52.8534888 92.759857,51.3317225 91.8113229,49.5821323 C90.82835,47.6253472 90.3522857,45.4543989 90.4265283,43.2671917 C90.3651817,39.8348912 91.845048,36.5547224 94.4616473,34.3232276 C95.7314743,33.2513781 97.1989091,32.4368798 98.7816762,31.9253998 C100.474609,31.3691313 102.246831,31.0902783 104.029319,31.0997015 C105.631517,31.0952371 107.219629,31.3979858 108.707141,31.9914556 C110.226166,32.6039263 111.533746,33.6435845 112.470602,34.9837863 C112.972291,34.0874906 113.701105,33.3381248 114.584236,32.8105483 C115.44583,32.2701031 116.377712,31.8500359 117.353825,31.5620925 C118.049506,33.8841295 118.458904,36.281999 118.572974,38.7027315 C118.723159,41.344966 118.80046,43.8550889 118.804878,46.2331 L114.252945,46.2331 C113.934966,44.6009385 113.491947,42.9954809 112.927783,41.4308387 C112.456896,40.0958388 111.801229,38.8329742 110.979795,37.6788656 C110.278028,36.6914557 109.374849,35.8630672 108.32947,35.2480097 C107.320988,34.6741981 106.177678,34.3778447 105.016565,34.3892835 C102.465627,34.3892835 100.48451,34.9111248 99.0533345,35.9415963 C97.7073813,36.8482466 96.9122033,38.3716202 96.9397007,39.9908208 C96.8976145,41.007227 97.1506891,42.014142 97.6685399,42.8906733 C98.2211774,43.6933952 98.939568,44.3690535 99.7755479,44.8723492 C100.847149,45.5386906 101.986515,46.0900283 103.174589,46.5171402 C104.499751,47.0279722 106.006019,47.6114657 107.693392,48.2676206 C109.581748,49.0140519 111.324337,49.7604832 112.907906,50.5069144 C114.405836,51.1931051 115.783802,52.1141491 116.989405,53.2350216 C118.124728,54.3058544 119.015145,55.6081136 119.599975,57.0530506 C120.269964,58.8655547 120.582682,60.7899613 120.520963,62.7206437 C120.54924,64.7278467 120.172966,66.720277 119.414452,68.5797989 L119.414452,68.5864045 Z" id="Shape" fill-rule="nonzero"></path>
                <path d="M151.666667,27.2222222 C135.023677,19.5247796 119.084631,10.4167533 104.027778,0 C88.9709242,10.4167533 73.0318781,19.5247796 56.3888889,27.2222222 C57.975728,45.3385919 57.975728,63.5568963 56.3888889,81.673266 C73.0316412,89.3685977 88.9706801,98.4744119 104.027778,108.888889 C119.084631,98.4721356 135.023677,89.3641093 151.666667,81.6666667 C150.080213,63.5524844 150.080213,45.3364045 151.666667,27.2222222 Z M149.053029,80.1818182 C133.321433,87.4570839 118.256625,96.0684429 104.027778,105.919192 C89.7998315,96.0670431 74.7348975,87.4556121 59.002527,80.1818182 C60.5034708,63.0557261 60.5034708,45.8331628 59.002527,28.7070707 C74.7322236,21.4281987 89.7967241,12.8170156 104.027778,2.96969697 C118.259725,12.8156264 133.324101,21.4267384 149.053029,28.7070707 C147.552085,45.8331628 147.552085,63.0557261 149.053029,80.1818182 Z" id="Shape" fill-rule="nonzero"></path>
                <path d="M20.5730792,136.049475 C20.4361099,135.319821 20.2422651,134.602323 19.9933677,133.903729 C19.7875788,133.305595 19.499045,132.740101 19.1364029,132.224171 C18.8296055,131.783642 18.4345211,131.413698 17.97698,131.138526 C17.5324578,130.880126 17.0274954,130.747772 16.5150989,130.755357 C15.5933618,130.698833 14.6777153,130.940333 13.9000961,131.445061 C13.3108297,131.853987 12.963014,132.535015 12.973818,133.258728 C12.9587001,133.705977 13.0678681,134.148535 13.2888786,134.535958 C13.5324309,134.898695 13.8505763,135.2037 14.2214579,135.430019 C14.6920023,135.729782 15.1925998,135.978103 15.7148451,136.170812 C16.3071589,136.394327 16.9750874,136.656159 17.6997267,136.949922 C18.5314866,137.282002 19.3002344,137.588537 19.9933677,137.952548 C20.6480424,138.254915 21.2502153,138.662494 21.7766106,139.15953 C22.27582,139.637359 22.6670526,140.219047 22.9234311,140.864632 C23.4928463,142.538328 23.4683336,144.360911 22.8541177,146.018255 C22.5462097,146.765771 22.0793193,147.435206 21.4867548,147.978803 C20.8822683,148.539587 20.1700757,148.967879 19.3947526,149.236875 C18.5206968,149.528513 17.6054009,149.673051 16.6852316,149.664747 C15.983568,149.666887 15.2845972,149.576728 14.6058318,149.396529 C13.9573947,149.22707 13.3573431,148.9055 12.854095,148.457765 C12.4692061,148.728993 12.0671646,148.974323 11.6505636,149.192172 C11.2356953,149.405893 10.8035345,149.583224 10.3588152,149.722222 C10.1291203,149.048132 9.96451724,148.353041 9.86732074,147.646723 C9.76739475,146.931735 9.71895746,146.210322 9.72239288,145.488205 C9.72239288,144.977313 9.72239288,144.479193 9.76650136,143.98746 C9.79192456,143.48467 9.84451349,142.983671 9.92403165,142.486714 L11.8143951,142.486714 C11.8169384,143.152161 11.8994621,143.814816 12.0601424,144.460035 C12.2062261,145.118607 12.4665142,145.745664 12.8288902,146.312018 C13.1961716,146.874792 13.6881471,147.342783 14.2655664,147.678654 C14.9140464,148.050098 15.6508938,148.233479 16.3953759,148.208705 C17.0342768,148.222632 17.6715881,148.138665 18.2857394,147.959645 C18.7496405,147.823696 19.1793825,147.588507 19.5459817,147.269941 C19.8519719,146.990866 20.089335,146.643144 20.2391149,146.254543 C20.3865421,145.865312 20.4613254,145.451708 20.4596573,145.034788 C20.4799611,144.418977 20.2957992,143.814069 19.9366568,143.316914 C19.4845403,142.786354 18.8885331,142.402166 18.2227273,142.21211 C17.0465011,141.786367 15.9647931,141.379782 14.9776033,140.992355 C14.0600538,140.631585 13.1951668,140.146048 12.406709,139.549085 C11.7068041,139.021488 11.1284399,138.345987 10.7116831,137.569379 C10.2719408,136.696731 10.0552848,135.726203 10.0815619,134.746701 C10.0536628,133.211295 10.7028325,131.743266 11.8522024,130.742584 C12.4095042,130.266722 13.0510244,129.902628 13.7425658,129.669711 C14.4893738,129.424361 15.2700557,129.301476 16.0551105,129.305701 C16.7675565,129.30046 17.474075,129.437159 18.1345103,129.708028 C18.8039766,129.978832 19.3802275,130.442938 19.7917289,131.042734 C20.0135257,130.644231 20.3324406,130.310024 20.718007,130.072039 C21.0988851,129.831791 21.5100961,129.644897 21.9404421,129.516444 C22.2460895,130.554849 22.4259452,131.627085 22.476045,132.709519 C22.5453584,133.890956 22.5768644,135.014919 22.5768644,136.07502 L20.5730792,136.049475 Z" id="Path"></path>
                <path d="M53.4692051,139.384978 C53.4967968,140.898883 53.2170042,142.40325 52.6457877,143.812265 C52.1308155,145.031036 51.3543793,146.129445 50.3681088,147.034453 C49.3793989,147.923155 48.2131438,148.605316 46.9416297,149.038654 C45.5602564,149.502977 44.1070799,149.734025 42.6452499,149.721758 C41.2483679,149.731814 39.8579895,149.53626 38.5215222,149.141764 C37.2903476,148.791447 36.1496782,148.191829 35.1747286,147.38245 C34.1810677,146.51311 33.408303,145.432306 32.9169711,144.224705 C32.331525,142.758749 32.0494666,141.195206 32.0869132,139.62342 C32.0485438,138.039734 32.318906,136.463276 32.8837688,134.977024 C33.3588619,133.752205 34.1177048,132.649758 35.1016835,131.754836 C36.069023,130.906025 37.2157927,130.272592 38.461758,129.898855 C39.8237076,129.495071 41.2411288,129.295147 42.6651713,129.305973 C44.0929917,129.298877 45.512551,129.516514 46.8685846,129.95041 C48.1401404,130.358055 49.3112026,131.016249 50.3083446,131.883723 C51.3118797,132.753441 52.1054427,133.827222 52.6325068,135.028579 C53.2201595,136.408554 53.5051133,137.89221 53.4692051,139.384978 Z M42.890947,148.284662 C43.8223394,148.327632 44.7461518,148.103498 45.5471324,147.640225 C46.2499093,147.176746 46.8135617,146.540794 47.1806864,145.797133 C47.6044248,144.92377 47.8823676,143.990573 48.0041038,143.032495 C48.1624005,141.90485 48.2400583,140.767921 48.23652,139.629864 C48.2374276,138.526142 48.1597707,137.423678 48.0041038,136.330343 C47.871727,135.333047 47.5758077,134.362723 47.1275626,133.456151 C46.735408,132.649829 46.1306253,131.958415 45.3744803,131.45195 C44.4888432,130.909006 43.4525722,130.643527 42.4061932,130.691514 C41.453906,130.644109 40.5111184,130.894872 39.7168056,131.40684 C39.0287526,131.902 38.4936401,132.570641 38.1695776,133.340153 C37.8061102,134.224011 37.5822382,135.156062 37.5055313,136.10479 C37.3888173,137.196652 37.3311875,138.293703 37.3328792,139.391422 C37.3265632,140.564254 37.4086815,141.735963 37.5785764,142.897163 C37.7094088,143.881613 38.003155,144.839107 38.4484771,145.732689 C39.2374502,147.403961 41.007305,148.429389 42.8975875,148.31044 L42.890947,148.284662 Z" id="Shape" fill-rule="nonzero"></path>
                <path d="M76.1501371,148.736621 L76.1501371,147.445528 C77.2952109,147.445528 77.8644762,147.345183 77.8644762,147.137806 C77.8480467,146.936292 77.7971069,146.739298 77.7139808,146.55581 C77.5623886,146.185479 77.3714901,145.833281 77.1447155,145.505543 L73.0747959,139.250765 L71.9035489,140.34117 C71.6982485,140.542339 71.5160421,140.766774 71.3604568,141.01013 C71.2075196,141.263594 71.1052196,141.545526 71.0594659,141.839641 L71.0594659,145.565749 C71.024783,146.106233 71.2493131,146.630208 71.6614476,146.970566 C72.290022,147.3458 73.0172187,147.511792 73.7422104,147.445528 L73.7422104,148.736621 L63.4038294,148.736621 L63.4038294,147.445528 C65.2184988,147.445528 66.1236524,146.818935 66.1192902,145.565749 L66.1192902,131.644687 C66.1192902,130.306766 65.1443416,129.671254 63.1944444,129.671254 L63.1944444,128.333333 L73.663691,128.333333 L73.663691,129.671254 C71.9362653,129.671254 71.0463794,130.340214 71.0463794,131.644687 L71.0463794,138.541667 L77.5503988,132.166476 C77.8847228,131.881579 78.1835852,131.555814 78.4402848,131.196483 C78.604291,130.913801 78.6838937,130.58827 78.6692996,130.259939 C78.6692996,129.871942 77.9822553,129.671254 76.6212532,129.671254 L76.6212532,128.333333 L84.9312177,128.333333 L84.9312177,129.671254 C84.4653463,129.716435 84.0036976,129.799198 83.5505858,129.918769 C83.1593419,130.021514 82.7831115,130.176722 82.4316851,130.380352 C82.0263588,130.616572 81.6487616,130.899369 81.306241,131.223242 C80.9136443,131.58448 80.4228984,132.039373 79.8405465,132.561162 L76.4707578,135.905963 L82.9158877,145.458716 C83.292425,146.031942 83.7720423,146.526825 84.329236,146.917049 C84.9942338,147.314225 85.7588084,147.502664 86.5277778,147.458907 L86.5277778,148.75 L76.1501371,148.736621 Z" id="Path"></path>
                <path d="M110.428591,132.995372 C110.428591,131.412153 109.417936,130.614001 107.390021,130.614001 L107.390021,129.305556 L114.722222,129.305556 L114.722222,130.614001 C113.057614,130.614001 112.225311,131.412153 112.225311,132.995372 L112.225311,141.97131 C112.235675,143.0404 112.122646,144.107162 111.888426,145.150833 C111.692922,146.053751 111.270304,146.893131 110.659787,147.591084 C109.999142,148.304942 109.167728,148.842653 108.242142,149.154676 C106.986051,149.565627 105.667117,149.756035 104.344846,149.717308 C103.224157,149.727493 102.10907,149.559626 101.042053,149.220099 C100.103434,148.92267 99.2279748,148.456985 98.4592684,147.846231 C97.749127,147.277953 97.1721402,146.563637 96.7682383,145.752718 C96.3603959,144.923675 96.1523683,144.012206 96.1605243,143.090031 L96.1605243,132.543959 C96.1605243,131.235513 95.2159255,130.614001 93.3333333,130.614001 L93.3333333,129.305556 L103.974933,129.305556 L103.974933,130.614001 C102.092341,130.614001 101.147742,131.268224 101.147742,132.543959 L101.147742,142.357301 C101.148717,143.014887 101.203947,143.671294 101.312882,144.31997 C101.421958,144.962399 101.645634,145.580468 101.97344,146.145251 C102.29976,146.681365 102.753252,147.130507 103.294558,147.453697 C103.955278,147.83261 104.71163,148.01648 105.474401,147.983618 C107.235891,147.983618 108.508567,147.501673 109.29243,146.537785 C110.076293,145.573897 110.461619,144.167318 110.448408,142.318048 L110.428591,132.995372 Z" id="Path"></path>
                <path d="M143.888889,146.416059 C143.874965,146.760165 143.783883,147.096594 143.622502,147.400008 C143.422331,147.800526 143.154033,148.162432 142.82984,148.469232 C142.459932,148.829614 142.034164,149.126527 141.569377,149.348226 C141.063104,149.594397 140.506929,149.717931 139.945069,149.709008 C139.002762,149.777335 138.060199,149.579744 137.222729,149.138317 C136.6827,148.801405 136.27074,148.290751 136.053227,147.688633 C135.637404,146.501335 135.267062,145.418991 134.948697,144.454721 C134.674228,143.599941 134.337622,142.766786 133.941626,141.962051 C133.657775,141.350364 133.250597,140.805222 132.746135,140.361495 C132.251474,139.993756 131.64378,139.814809 131.030866,139.856401 C130.654027,139.856401 130.381143,139.928557 130.316171,140.06631 L130.316171,146.416059 C130.316171,147.583678 131.199794,148.167488 132.980036,148.167488 L132.980036,149.433502 L122.681923,149.433502 L122.681923,148.167488 C124.414518,148.167488 125.280815,147.583678 125.280815,146.416059 L125.280815,132.39807 C125.280815,131.269809 124.353877,130.705678 122.5,130.705678 L122.5,129.393747 L127.191002,129.393747 C127.853719,129.393747 128.412481,129.393747 128.867288,129.393747 L130.303176,129.354389 C130.803463,129.354389 131.375219,129.315031 132.024943,129.308471 C132.674666,129.301911 133.493317,129.308471 134.493891,129.308471 C135.397426,129.287887 136.297952,129.420938 137.157756,129.70205 C137.828763,129.92687 138.444544,130.293627 138.963987,130.777834 C139.426367,131.220923 139.776254,131.76992 139.984052,132.378391 C140.19724,133.027719 140.302617,133.708168 140.295919,134.392206 C140.328329,135.690021 139.752883,136.927328 138.743081,137.731072 C137.517988,138.663663 136.055622,139.225565 134.526377,139.351307 C135.150728,139.430786 135.769279,139.551302 136.378088,139.712089 C136.836365,139.831449 137.274366,140.019388 137.677535,140.26966 C138.029461,140.493167 138.337772,140.779983 138.587147,141.115855 C138.845183,141.477685 139.063065,141.86704 139.236871,142.276915 C139.50427,142.896647 139.721554,143.537211 139.886594,144.192335 C140.042527,144.848301 140.211455,145.392753 140.380383,145.897846 C140.516773,146.327108 140.706719,146.737101 140.945643,147.117943 C141.149497,147.424059 141.496776,147.600611 141.861752,147.583678 C142.297067,147.583678 142.64142,147.117943 142.875321,146.193031 L143.888889,146.416059 Z M131.544147,138.295202 C132.029033,138.296975 132.513362,138.261891 132.99303,138.190248 C133.398206,138.129095 133.779673,137.959184 134.09756,137.698274 C134.441799,137.398549 134.692354,137.004291 134.818753,136.563453 C135.009346,135.89447 135.094849,135.19945 135.072145,134.50372 C135.088933,133.907344 135.003199,133.312543 134.818753,132.745732 C134.676914,132.327536 134.441204,131.948124 134.130046,131.63715 C133.838417,131.361244 133.483414,131.162876 133.096986,131.0599 C132.673335,130.945332 132.236088,130.89015 131.797539,130.895908 L131.199794,130.895908 C130.602049,130.895908 130.303176,131.387883 130.303176,132.378391 L130.303176,137.986899 C130.367686,138.194168 130.570725,138.324364 130.783971,138.295202 L131.544147,138.295202 Z" id="Shape" fill-rule="nonzero"></path>
                <path d="M172.080773,139.385321 C172.111842,140.904039 171.832243,142.413687 171.258107,143.827177 C170.741118,145.041578 169.965727,146.136746 168.982506,147.041255 C167.994699,147.92772 166.829508,148.608164 165.559154,149.040412 C164.178913,149.503072 162.727151,149.733525 161.266695,149.721796 C159.871088,149.731826 158.481978,149.536765 157.14673,149.143262 C155.905139,148.78106 154.758141,148.165109 153.783088,147.33695 C152.790443,146.468338 152.016512,145.39081 151.520756,144.187154 C150.938276,142.7244 150.658738,141.164839 150.69809,139.59745 C150.659756,138.01775 150.929871,136.44526 151.494219,134.962749 C151.966308,133.739735 152.724826,132.639529 153.71011,131.748671 C154.675551,130.900638 155.821602,130.268618 157.067118,129.897362 C158.427824,129.494594 159.843952,129.295173 161.266695,129.305972 C162.693212,129.298894 164.111476,129.515983 165.466272,129.948787 C166.736668,130.355406 167.906661,131.011943 168.902893,131.877234 C169.905513,132.744762 170.698352,133.815841 171.224935,135.014174 C171.822504,136.397218 172.114059,137.88632 172.080773,139.385321 Z M161.512168,148.262605 C162.44271,148.305466 163.36568,148.081897 164.165929,147.619789 C164.868065,147.157477 165.431203,146.523125 165.797993,145.781336 C166.221344,144.910172 166.499033,143.979323 166.620659,143.023657 C166.778811,141.89885 166.856398,140.764783 166.852863,139.629591 C166.853769,138.528647 166.776183,137.428957 166.620659,136.338375 C166.492633,135.351264 166.203762,134.390089 165.764821,133.490701 C165.37065,132.685968 164.764171,131.99634 164.006704,131.491545 C163.124626,130.949313 162.091181,130.68439 161.04776,130.733022 C160.096341,130.685736 159.154414,130.935869 158.360826,131.446548 C157.671955,131.939027 157.136985,132.606417 156.81501,133.374995 C156.438132,134.254512 156.201023,135.184299 156.111764,136.132674 C155.997469,137.221907 155.942106,138.316191 155.945903,139.411033 C155.939593,140.580913 156.021637,141.749672 156.191376,142.90795 C156.318478,143.89066 156.612127,144.846302 157.060483,145.736339 C157.848736,147.403404 159.616976,148.426252 161.505534,148.307602 L161.512168,148.262605 Z" id="Shape" fill-rule="nonzero"></path>
                <path d="M187.43899,149.506277 L180.525797,132.394231 C180.122776,131.323066 179.08095,130.612346 177.916667,130.614316 L177.916667,129.305556 L188.146324,129.305556 L188.146324,130.614316 L186.604869,130.614316 C186.010975,130.614316 185.717365,130.738649 185.717365,130.980769 C185.718505,131.413181 185.802249,131.841556 185.964264,132.243723 L190.815511,144.977965 L195.299745,132.865385 C195.393854,132.542186 195.436618,132.206697 195.426531,131.870726 C195.426531,131.046207 194.498989,130.633948 192.65725,130.633948 L192.65725,129.325187 L200.277778,129.325187 L200.277778,130.633948 L199.143373,130.633948 C198.848414,130.637853 198.571142,130.772603 198.389328,131.000401 C198.119817,131.320716 197.89538,131.675066 197.722032,132.053953 L190.441825,149.722222 L187.43899,149.506277 Z" id="Path"></path>
            </g>
        </g>
    </g>
</svg>