<svg id="Слой_1" data-name="Слой 1" xmlns="http://www.w3.org/2000/svg" viewBox="0 0 45 45"><defs><style>.cls-1,.cls-2{fill:none;}.cls-1,.cls-3{stroke:#006cff;}.cls-1,.cls-2,.cls-3{stroke-linejoin:round;stroke-width:1.5px;}.cls-2{stroke:#6cafff;}.cls-3{fill:#fff;}</style></defs><line class="cls-1" x1="32.81" y1="24.99" x2="32.81" y2="44"/><polyline class="cls-2" points="15.37 15.97 15.37 2.97 37 9.97 37 43.97 15.37 43.97"/><line class="cls-2" x1="0.37" y1="43.97" x2="44.37" y2="43.97"/><rect class="cls-2" x="3" y="15.97" width="17" height="28"/><line class="cls-2" x1="16.6" y1="20.97" x2="6.89" y2="20.97"/><path class="cls-3" d="M38,20.41a1.63,1.63,0,0,1-.59-1.95,7.84,7.84,0,0,0,.54-2.87c0-3.56-2.29-6.44-5.1-6.44s-5.1,2.88-5.1,6.44a7.9,7.9,0,0,0,.55,2.92,1.55,1.55,0,0,1-.56,1.87A8.33,8.33,0,0,0,24,27.26a8.63,8.63,0,0,0,8.81,8.44,8.64,8.64,0,0,0,8.81-8.44A8.33,8.33,0,0,0,38,20.41Z"/><line class="cls-2" x1="16.6" y1="27.97" x2="6.89" y2="27.97"/><line class="cls-2" x1="16.6" y1="34.97" x2="6.89" y2="34.97"/></svg>