<svg id="Слой_1" data-name="Слой 1" xmlns="http://www.w3.org/2000/svg" viewBox="0 0 45 45"><defs><style>.cls-1,.cls-2{fill:none;stroke-linejoin:round;stroke-width:1.5px;}.cls-1{stroke:#6cafff;}.cls-2{stroke:#006cff;}</style></defs><path class="cls-1" d="M41.28,23.2a3.47,3.47,0,0,0-2.07-6.27,3.26,3.26,0,0,0-.7.07v-.07H27.38a31.53,31.53,0,0,0,1.39-7.66C28.77,6,26.11,3,24.59,3a6.45,6.45,0,0,0-2.79.7V10L16.23,21.11l-1.39.69V38.52a8.35,8.35,0,0,0,4.87,2.09H35.3v0a3.47,3.47,0,0,0,3.22-3.46A3.43,3.43,0,0,0,37.8,35h0a3.48,3.48,0,0,0,2.59-5.8A3.48,3.48,0,0,0,42.7,26,3.44,3.44,0,0,0,41.28,23.2Z"/><rect class="cls-2" x="2.3" y="21.11" width="12.54" height="20.89"/></svg>