<svg id="Слой_1" data-name="Слой 1" xmlns="http://www.w3.org/2000/svg" viewBox="0 0 45 45"><defs><style>.cls-1,.cls-3{fill:none;}.cls-1{stroke:#6cafff;}.cls-1,.cls-2,.cls-3{stroke-linejoin:round;stroke-width:1.5px;}.cls-2{fill:#fff;}.cls-2,.cls-3{stroke:#006cff;}</style></defs><line class="cls-1" x1="2.46" y1="4.61" x2="32.37" y2="4.61"/><polyline class="cls-1" points="30.88 4.61 30.93 44 3.92 44 3.96 4.61"/><rect class="cls-1" x="11.44" y="32.53" width="11.96" height="11.47"/><line class="cls-1" x1="17.42" y1="32.91" x2="17.42" y2="44"/><rect class="cls-1" x="8.45" y="22.06" width="5.98" height="5.98"/><rect class="cls-1" x="20.41" y="22.06" width="5.98" height="5.98"/><rect class="cls-2" x="8.45" y="11.6" width="5.98" height="5.98"/><rect class="cls-1" x="20.41" y="11.6" width="5.98" height="5.98"/><line class="cls-1" x1="11.44" y1="22.06" x2="11.44" y2="28.05"/><line class="cls-1" x1="23.4" y1="22.06" x2="23.4" y2="28.05"/><line class="cls-2" x1="11.44" y1="11.6" x2="11.44" y2="17.58"/><line class="cls-1" x1="23.4" y1="11.6" x2="23.4" y2="17.58"/><line class="cls-3" x1="33.73" y1="24.99" x2="33.73" y2="44"/><path class="cls-2" d="M38.88,20.41a1.63,1.63,0,0,1-.59-1.95,7.84,7.84,0,0,0,.54-2.87c0-3.56-2.29-6.44-5.1-6.44s-5.1,2.88-5.1,6.44a7.9,7.9,0,0,0,.55,2.92,1.55,1.55,0,0,1-.56,1.87,8.33,8.33,0,0,0-3.7,6.88,8.63,8.63,0,0,0,8.81,8.44,8.64,8.64,0,0,0,8.81-8.44A8.33,8.33,0,0,0,38.88,20.41Z"/><line class="cls-1" x1="0.37" y1="43.97" x2="44.37" y2="43.97"/></svg>