<svg id="Слой_1" data-name="Слой 1" xmlns="http://www.w3.org/2000/svg" viewBox="0 0 45 45"><defs><style>.cls-1,.cls-2{fill:none;stroke-linejoin:round;stroke-width:1.5px;}.cls-1{stroke:#6cafff;}.cls-2{stroke:#006cff;}</style></defs><rect class="cls-1" x="3.88" y="25" width="17.24" height="8"/><line class="cls-1" y1="37" x2="25" y2="37"/><line class="cls-1" x1="3.45" y1="37" x2="3.45" y2="45"/><line class="cls-1" x1="21.55" y1="37" x2="21.55" y2="45"/><path class="cls-2" d="M39.55,13.72a1.9,1.9,0,0,1-.63-2.2,9.2,9.2,0,0,0,.58-3.25C39.5,4.26,37,1,34,1s-5.5,3.26-5.5,7.27a9.22,9.22,0,0,0,.6,3.3,1.81,1.81,0,0,1-.61,2.12,9.5,9.5,0,1,0,11.06,0Z"/><line class="cls-2" x1="34" y1="21" x2="34" y2="45"/></svg>